<?xml version="1.0" encoding="UTF-8" standalone="no"?>
<!-- Created with Inkscape (http://www.inkscape.org/) -->

<svg
   xmlns:osb="http://www.openswatchbook.org/uri/2009/osb"
   xmlns:dc="http://purl.org/dc/elements/1.1/"
   xmlns:cc="http://creativecommons.org/ns#"
   xmlns:rdf="http://www.w3.org/1999/02/22-rdf-syntax-ns#"
   xmlns:svg="http://www.w3.org/2000/svg"
   xmlns="http://www.w3.org/2000/svg"
   xmlns:sodipodi="http://sodipodi.sourceforge.net/DTD/sodipodi-0.dtd"
   xmlns:inkscape="http://www.inkscape.org/namespaces/inkscape"
   width="210mm"
   height="210mm"
   viewBox="0 0 210 210"
   version="1.1"
   id="svg8"
   inkscape:version="0.92.4 5da689c313, 2019-01-14"
   sodipodi:docname="icon.svg"
   inkscape:export-filename="/home/patrick/GpsLogger/icon.png"
   inkscape:export-xdpi="123.85523"
   inkscape:export-ydpi="123.85523">
  <defs
     id="defs2">
    <linearGradient
       id="linearGradient2323"
       osb:paint="solid">
      <stop
         style="stop-color:#000000;stop-opacity:1;"
         offset="0"
         id="stop2321" />
    </linearGradient>
    <filter
       inkscape:label="Bubbly Bumps Alpha"
       inkscape:menu="Bumps"
       inkscape:menu-tooltip="Same as Bubbly Bumps but with transparent highlights"
       style="color-interpolation-filters:sRGB;"
       id="filter853"
       width="1.1199999999999999"
       height="1.0999999999999999"
       x="-0.040000000000000015">
      <feGaussianBlur
         result="result0"
         in="SourceGraphic"
         stdDeviation="0.5"
         id="feGaussianBlur827" />
      <feTurbulence
         baseFrequency="0.045999999999999999 0.17599999999999999"
         seed="300"
         numOctaves="5"
         result="result1"
         type="turbulence"
         id="feTurbulence829" />
      <feGaussianBlur
         stdDeviation="4"
         result="result8"
         id="feGaussianBlur831" />
      <feDisplacementMap
         result="result7"
         in2="result8"
         scale="5"
         in="SourceGraphic"
         xChannelSelector="R"
         id="feDisplacementMap833" />
      <feComposite
         result="result2"
         operator="in"
         in2="result1"
         in="result7"
         id="feComposite835" />
      <feComposite
         k3="3"
         in2="result2"
         in="result0"
         operator="arithmetic"
         id="feComposite837" />
      <feBlend
         result="fbSourceGraphic"
         mode="multiply"
         in2="result2"
         id="feBlend839" />
      <feColorMatrix
         values="1 0 0 -1 0 1 0 1 -1 0 1 0 0 -1 0 -1.8 -0.5 0 5.7 -3.5 "
         in="fbSourceGraphic"
         result="fbSourceGraphicAlpha"
         id="feColorMatrix841" />
      <feGaussianBlur
         stdDeviation="0.5"
         in="fbSourceGraphicAlpha"
         result="result0"
         id="feGaussianBlur843" />
      <feSpecularLighting
         result="result6"
         surfaceScale="-5"
         specularExponent="5"
         id="feSpecularLighting847">
        <feDistantLight
           azimuth="225"
           elevation="25"
           id="feDistantLight845" />
      </feSpecularLighting>
      <feComposite
         in2="result6"
         in="SourceGraphic"
         result="result2"
         operator="in"
         id="feComposite849" />
      <feComposite
         in="result2"
         result="result4"
         operator="arithmetic"
         k2="1"
         k3="1"
         in2="result2"
         id="feComposite851" />
    </filter>
  </defs>
  <sodipodi:namedview
     id="base"
     pagecolor="#ffffff"
     bordercolor="#666666"
     borderopacity="1.0"
     inkscape:pageopacity="0.0"
     inkscape:pageshadow="2"
     inkscape:zoom="0.35"
     inkscape:cx="485.34722"
     inkscape:cy="243.44269"
     inkscape:document-units="mm"
     inkscape:current-layer="layer1"
     showgrid="false"
     inkscape:window-width="1301"
     inkscape:window-height="744"
     inkscape:window-x="65"
     inkscape:window-y="24"
     inkscape:window-maximized="1"
     showguides="true" />
  <metadata
     id="metadata5">
    <rdf:RDF>
      <cc:Work
         rdf:about="">
        <dc:format>image/svg+xml</dc:format>
        <dc:type
           rdf:resource="http://purl.org/dc/dcmitype/StillImage" />
        <dc:title></dc:title>
      </cc:Work>
    </rdf:RDF>
  </metadata>
  <g
     inkscape:label="Layer 1"
     inkscape:groupmode="layer"
     id="layer1"
     transform="translate(0,-87)"
     style="display:inline">
    <g
       id="g916"
       transform="matrix(1.114313,0,0,1.0552698,-11.377671,-7.5198026)">
      <path
         style="display:inline;fill:#a0c292;fill-opacity:1;stroke-width:0.26458335"
         d="m 106.18018,287.54467 c -20.592522,-0.66585 -40.65045,-11.4402 -52.36224,-28.42716 -5.546343,-5.25026 -5.552915,-17.40871 -15.279485,-15.3218 -4.777057,-8.14916 -3.867872,-18.63196 -4.313688,-27.82806 0.85538,-16.39997 7.423899,-32.25451 17.759715,-44.94199 -5.743993,-5.13152 -10.296082,-10.61682 -17.870292,-14.85168 3.540498,-7.16954 12.160437,-13.0881 16.968325,-3.09346 3.568044,6.97768 9.073782,14.35855 15.094037,5.09592 10.066105,-7.44361 23.061265,-11.79664 34.743838,-13.55385 -4.226806,-5.57507 -14.375701,-6.32995 -17.753045,-14.58053 -10.667543,-15.09793 0.512468,-38.926082 18.925885,-40.53387 12.13602,-1.821003 25.76777,5.158397 29.45987,17.26167 -4.90568,-12.148673 -19.93031,-20.066085 -32.411889,-14.704682 0.928839,0.221064 12.974429,-1.790617 17.664999,1.809997 11.36407,4.768997 17.39406,19.552225 12.18626,30.853995 -2.24707,6.20321 -1.10038,3.67519 1.34159,-0.57057 -1.1617,6.77931 -6.57309,10.51179 -9.69616,14.79498 -10.02945,5.90269 -7.34682,-7.4525 -8.84382,-12.66453 -9.86677,-1.69901 -2.8533,11.2813 -4.20405,16.24858 4.06296,2.10523 7.83491,0.36065 1.15754,1.58083 11.49229,1.02154 23.55967,2.33623 33.60712,8.56897 0.0897,5.73441 0.64135,9.07045 3.7461,12.01533 -6.31348,0.70032 8.07912,0.4807 0.7092,3.34462 6.44745,3.9902 11.80347,11.29367 16.78072,17.54832 -0.23765,-4.18663 -7.16896,-7.90912 -3.15369,-9.30621 22.90369,25.29331 20.58141,68.40817 -4.27851,91.63543 -13.07434,12.97521 -31.60459,20.08418 -49.97833,19.61975 z m -6.08815,-1.85482 c -0.873862,-0.42338 -0.477503,0.53494 0,0 z m 6.78192,-2.88285 c -0.25792,-1.41215 -0.58851,1.44734 0,0 z m 3.3439,-0.2802 c -0.53129,-0.99547 -0.21587,1.34879 0,0 z m -12.242487,-0.0119 c -0.873845,-0.42337 -0.477523,0.53494 0,0 z m 9.398217,-0.63391 c 7.36474,0.40175 -4.75658,-1.51518 2.31017,-1.63523 -3.21866,0.0902 -12.401118,2.19351 -2.31017,1.63523 z m -7.546133,0.10473 c -0.873845,-0.42337 -0.477523,0.53494 0,0 z m -2.441885,-0.52016 c -5.083671,-0.93959 -2.221471,0.2184 1.052777,0.33755 z m 18.613078,0.0631 c 7.25941,-1.76183 -10.9384,1.01302 -0.58797,0.0663 l 0.51264,-0.0578 z m 8.89036,-0.72539 c 10.10007,-2.37149 18.63872,-8.17187 26.19397,-15.0118 5.59028,-4.89169 5.40871,-8.68685 9.43033,-13.03863 -1.97165,2.94103 -3.84135,8.18229 -0.21859,1.9129 2.03788,-3.18137 8.65782,-12.53829 4.69467,-9.7001 3.56424,-8.09044 4.45268,-15.85679 5.32723,-24.62408 -0.10248,-11.30521 -1.96867,-23.06944 -8.69054,-32.38751 1.12017,-3.54861 -4.4238,-8.1709 -2.45881,-4.54192 -0.60321,-2.93707 -8.43629,-9.3706 -5.13639,-7.69237 -6.92393,-5.36203 -14.0635,-9.89167 -22.5629,-13.2449 -17.15941,-6.59942 -37.517764,-5.38545 -53.43194,3.92346 -2.024313,1.87875 -6.454729,2.63309 -4.905301,1.88695 -1.524998,3.72643 -9.152022,6.11077 -3.518979,1.9114 -0.02962,1.43574 7.553439,-7.3334 11.93418,-8.16966 13.184791,-6.12301 28.31687,-8.34613 42.43605,-4.25188 3.8751,0.54072 17.10842,5.76425 7.29181,1.40761 -22.72786,-8.68025 -50.243337,-2.95356 -67.275808,14.52938 -5.511613,6.07214 -11.374751,12.64259 -13.448071,20.75947 0.726385,-2.71382 3.646366,-5.92578 1.32984,-0.91744 1.334779,-3.76052 9.558593,-14.92112 3.828429,-5.245 -4.1103,7.9599 -6.825521,16.82183 -7.729702,25.73649 -0.874585,10.03205 0.918618,19.93351 4.147028,29.41867 4.300303,12.4162 13.610106,23.46859 25.334696,29.44822 5.644261,3.55478 13.60673,7.42766 21.423819,7.76794 8.625179,-1.9064 -7.140122,-1.84635 -9.253666,-4.09099 -15.146297,-4.87533 -27.691407,-16.62122 -34.693233,-30.83866 -11.643368,-23.14303 -5.701008,-53.29653 13.735405,-70.37727 18.283931,-17.40371 47.781803,-20.59013 69.574033,-8.02853 23.5511,12.64219 35.81121,42.13093 28.6993,67.81231 -2.20859,9.27669 -7.85401,17.70568 -13.05498,25.10062 5.72842,-2.02925 -10.80439,11.42337 -3.42261,3.85274 4.7251,-5.77752 -6.21058,4.71461 -8.58237,5.6704 -6.37588,4.2059 -13.51334,7.25451 -20.96177,8.94736 2.20254,3.38103 -4.39728,1.08187 0.93954,2.56497 l 1.66299,-0.15504 z m -1.70656,-0.50975 c 0.59386,-1.02462 0.34833,1.00322 0,0 z m -1.05834,-0.26459 c -0.81192,-1.38688 1.55104,0.62961 0,0 z m 0.79375,-0.52916 c 0.66672,-0.99416 0.82062,1.17084 0,0 z m 1.19479,0.007 c 0.29443,-1.60572 1.33209,1.07581 0,0 z m -31.357286,-0.66818 c 0.593647,-1.45447 0.249863,1.41672 0,0 z m 33.668816,0.13229 c 3.34169,-2.68956 0.1821,0.85466 0,0 z m -34.991733,-0.66146 c 0.593679,-1.45443 0.249824,1.41674 0,0 z m -2.182813,-0.30752 c 1.274224,-0.65671 0.437615,0.54749 0,0 z m 38.893746,0 c 1.27423,-0.65671 0.43762,0.54749 0,0 z m -39.753642,-0.35394 c 0.593889,-1.02459 0.348295,1.00323 0,0 z m 41.671872,0 c 0.63853,-1.03904 0.6385,1.03904 0,0 z m -44.185413,-1.05833 c -0.316896,-1.13731 1.903416,1.5284 0,0 z m 46.457473,0.0151 c 4.14661,-1.61372 -1.12572,0.98057 0,0 z M 84.994243,276.4129 c -1.029153,-1.25834 1.102251,0.12551 0,0 z m -2.623785,-1.06433 c -5.116894,-2.76352 2.820767,-0.12369 0,0 z m 56.157812,-1.6697 c 0.63854,-1.03906 0.63851,1.03906 0,0 z m -62.107699,-1.7705 c 0.996209,-1.83321 1.018963,0.68784 0,0 z m -19.190833,-18.7726 c -0.0038,-1.37252 1.156728,-0.10436 0,0 z m 103.655822,-0.88815 c 0.60419,-2.756 0.93229,1.05492 0,0 z m 1.98438,-2.98383 c 0.40821,-3.67889 3.28615,-3.10097 0,0 z m 4.49791,-13.65369 c 0.24727,-1.30625 0.99402,0.51041 0,0 z m 1.20764,-7.09742 c -0.23476,-1.15745 0.88389,1.37331 0,0 z M 53.59702,192.83305 c 0.548676,-1.00574 0.507155,1.4719 0,0 z m 106.62708,-7.05317 c -1.92075,-3.4273 1.57033,-0.46855 0,0 z m -1.67569,-2.50031 c -1.38527,-1.27702 1.41208,0.11351 0,0 z m -99.659724,-0.8599 c 2.488529,-5.11739 3.099244,-1.57752 0.08699,0.37094 l -0.08699,-0.37069 z m 3.638021,-3.64402 c 0.162706,-3.47634 7.25736,-8.53897 2.125009,-2.42437 l -0.868276,1.02549 z m 3.104558,-4.03741 c 4.184351,-3.24638 -3.181563,1.09496 0,0 z m -4.671381,3.51101 c 2.464948,-3.52945 3.612721,-2.4381 0,0 z m 93.972556,0.16401 c 0.7882,-0.58698 0.4863,1.00357 0,0 z m -8.33438,-7.39272 c -0.64273,-2.01155 2.22547,2.25922 0,0 z m -67.121483,-5.47241 c 1.436886,-0.55067 -0.119419,0.60641 0,0 z m 14.733985,115.27449 c -3.616573,-0.2716 -15.522265,-5.96217 -13.294085,-4.47076 4.075717,2.32988 8.606256,3.98955 13.294085,4.47076 z m -5.231032,-0.42443 c -0.873845,-0.42337 -0.477523,0.53494 0,0 z m 15.02062,-0.42833 c -0.74745,-0.99904 -0.74648,1.71111 0,0 z m 8.06979,-0.10159 c -1.02906,-0.59803 -0.88854,0.97951 0,0 z m 2.24896,0.1606 c -0.34835,-1.00323 -0.59386,1.02462 0,0 z m 0.92604,-0.41249 c -0.54869,-1.00572 -0.50715,1.4719 0,0 z m 2.11666,0.0156 c -2.87555,-1.91894 -1.32339,1.11412 0,0 z m 2.78766,-0.64604 c -2.45645,-0.4684 -1.82757,1.05274 0,0 z m -34.948885,0.008 c -0.757343,-0.86643 -1.256759,1.08364 0,0 z m 21.307495,-1.40758 c 0.74802,-3.45252 1.44642,5.26507 1.39735,-1.29963 1.26486,6.10962 0.86441,-2.78342 1.85547,1.38663 0.1403,-7.45552 1.705,-1.85753 2.56674,1.16073 -0.67163,-5.36493 2.34652,1.93256 1.8591,-2.90604 0.21761,6.00887 1.35034,-3.12086 1.76951,2.45535 -0.24357,-8.30553 0.51255,-2.06924 1.46461,-1.77421 0.86228,-2.70811 1.14599,4.11082 1.28056,-1 2.09245,4.66114 0.29528,-3.13282 2.28434,1.81831 -0.16416,-5.03646 1.91278,2.78571 0.83362,-3.27475 -0.65012,-6.5709 1.35896,6.43394 1.90813,0.53678 2.3016,6.0775 -0.90631,-2.89906 2.00734,1.37628 -2.01977,-3.68075 2.6345,-0.14622 2.40335,-0.94545 -1.78387,-5.45665 -1.17571,-5.32104 1.03699,-0.24275 0.12585,-4.45571 1.787,2.82208 1.02798,-2.38181 3.10013,4.6062 -0.7359,-3.10138 2.63117,1.08201 -2.86511,-4.66847 3.28974,2.80417 0.15657,-3.08077 -2.7919,-6.42518 3.01862,5.83313 1.72557,-0.13951 2.55302,4.30559 -0.42343,-1.62867 2.21119,0.18762 -0.77582,-2.2691 3.71814,3.13393 0.41499,-2.11734 4.50627,5.80842 -3.35098,-7.44649 1.47872,-1.09872 2.44554,5.55548 -0.0582,-2.71201 2.5715,2.02627 -1.63295,-4.7665 1.6928,0.73852 1.19717,-2.55651 3.05187,0.62761 -0.69874,-3.21817 -0.1982,-3.93346 2.91845,3.62279 2.11464,2.82309 2.64796,1.09993 3.16574,3.52621 -2.07925,-3.19358 2.4418,0.41281 -4.24967,-4.22426 2.85833,1.20419 -0.35617,-3.13445 5.17787,5.3439 -5.42611,-7.69423 1.49316,-0.32703 2.54266,2.41243 -1.30484,-3.33288 1.98208,0.003 -2.3004,-4.0422 2.70369,1.86705 0.18148,-2.61614 5.02567,3.71959 -2.45248,-3.2606 2.96016,0.0299 -4.39418,-3.24604 -3.91651,-4.78004 0.21524,-0.96333 -2.92258,-4.1719 2.90644,1.53456 -0.25515,-2.76299 4.07277,1.80011 -1.08766,-1.49321 2.48584,-0.82677 -3.11081,-2.3042 3.10391,0.6531 -1.78342,-2.34358 -4.50054,-4.99594 6.73781,4.44859 2.18345,-0.91864 4.01907,3.17333 -1.99618,-3.67199 3.0218,0.0914 -4.84373,-3.9667 3.14425,0.56101 -1.51456,-2.83201 5.01929,1.58839 -6.75102,-5.47769 1.40399,-1.33602 3.43152,2.41645 -2.84713,-3.38294 2.30575,-0.35331 -5.08215,-2.39314 3.40432,-0.27416 -1.58068,-2.68627 4.89703,2.05331 -2.13093,-2.91283 2.92785,-0.69832 -4.92674,-2.4998 -5.55575,-3.42059 0.20458,-1.12732 -3.29709,-2.87847 3.20432,0.16524 -0.94733,-2.41149 5.48054,0.66463 -2.7342,-1.34523 2.2475,-1.26319 -4.81794,-1.72565 4.15866,-0.93852 -2.16944,-2.13622 -6.41658,-2.62429 7.81589,1.77142 0.88591,-1.45559 6.23304,2.14711 -3.39164,-2.90724 3.20092,-1.08276 -5.76041,-0.82117 3.53681,-1.30295 -2.38125,-2.19587 6.90223,0.36487 -8.95859,-3.14784 1.22527,-1.42676 3.82818,0.59145 -3.67084,-1.93037 1.58245,-1.0856 -4.81832,-2.17512 3.30573,0.0389 -1.71624,-2.42736 5.24753,0.5179 -2.36798,-0.47621 2.20602,-1.43333 -7.43746,-1.02511 -2.88809,-0.66269 -0.25719,-1.48912 -5.4208,-0.58167 3.70334,-0.89826 -2.00941,-1.71215 5.98631,0.33981 -3.76865,-2.07279 2.8231,-1.58259 -4.26795,-0.29791 1.75638,-2.37931 -4.58187,-1.60024 -4.11466,-0.62125 9.14678,-1.0978 1.57162,-1.44876 6.52403,-0.85271 -3.71336,-1.42687 2.49875,-1.95392 -5.09854,-0.12923 2.2346,-1.50055 -2.17805,-1.74338 6.17323,-1.49043 -8.787,-0.24287 0.61078,-1.49571 1.99182,-0.63894 -3.96467,-1.19518 1.28379,-1.82119 -4.16568,0.27593 -0.20585,-1.15729 -1.80371,-1.82733 0.7744,-1.38179 -3.0628,0.25727 0.81371,-1.69607 -5.64422,0.83569 -5.93916,0.6118 -0.27291,-1.22074 -2.99508,-0.31381 -1.38406,-0.59729 -2.13789,-1.67579 3.84268,-0.77146 -2.45911,-0.10058 0.31535,-1.97845 -3.88402,1.78257 3.69559,-2.72028 -2.42736,-0.45601 -6.21337,1.47594 5.75914,-2.15945 0.60183,-2.0531 4.67787,-1.43695 -4.7682,0.11166 1.32281,-1.95341 -5.45535,2.28378 1.44187,-3.10922 -3.17624,-0.60755 4.78953,-4.23025 -8.17201,3.03698 0.0868,-2.07832 1.16712,-1.23987 -0.85508,-0.52643 -0.52399,-1.52578 -1.38335,0.0296 0.62828,-1.40737 -1.2106,-1.62636 3.91737,-1.91262 -4.60675,1.0193 0.85528,-1.98548 -7.93807,4.51053 -2.49571,0.007 -2.43045,-0.60184 1.19646,-1.16383 -0.12733,-1.52252 -1.14274,-1.36603 3.981,-2.19855 -4.0301,1.40674 0.50807,-2.33804 -4.2207,3.34426 1.01753,-3.22015 -3.50993,0.90162 -4.24098,2.48627 4.9856,-4.45917 0.58698,-2.57634 1.33095,-1.33051 -5.05282,1.21106 -1.04535,-3.02899 -4.22638,3.46834 1.29819,-2.92613 -3.35787,1.12633 -5.08479,3.65626 5.57525,-5.13044 -0.67781,-1.67386 4.61613,-4.15892 -3.3337,1.48628 0.8414,-3.05894 -4.37228,5.27002 -1.10151,-5.52037 -4.3612,0.97856 -4.42972,3.19317 5.33562,-6.58187 -0.75456,-1.83229 3.49789,-4.77664 -2.5259,2.19494 -0.0476,-2.74359 -3.58013,5.13096 1.10593,-4.25946 -2.73366,0.75243 3.95129,-6.55342 -5.51561,5.65974 -1.1661,-0.9251 3.65108,-4.0208 -3.09832,1.25491 0.32933,-2.92879 -3.87005,4.97625 0.62812,-4.00586 -2.85219,1.04022 1.21072,-5.48994 -2.09202,2.67926 -0.50288,-2.64797 -2.52844,4.1036 -4.61796,5.62102 -1.61988,0.14018 0.0266,-0.58538 -2.46178,2.51282 -0.5788,-1.20105 -3.61298,3.65142 0.68208,-3.51959 -2.44005,0.77139 1.05728,-5.76766 -1.6858,2.61636 -1.18285,-2.39213 -2.75572,5.29451 -2.09488,4.45403 -1.04637,-0.52016 -2.20984,3.43091 -0.10845,-1.44132 -2.47937,0.48034 1.26047,-3.18981 -1.53847,2.11073 -1.45906,-1.22775 -1.33599,4.24123 0.35811,-4.82659 -1.74051,1.66052 -2.75517,6.77609 2.13835,-7.4933 -1.55943,-0.77338 1.41083,-5.4196 -1.15717,2.04501 -1.05814,-2.98204 -0.58824,5.75532 -1.29534,-2.68118 -2.02075,2.09828 0.65681,-7.36525 -2.94331,7.92679 -1.51002,-0.51328 1.80867,-5.39129 -2.82521,3.75249 -1.02661,-2.77813 -0.24374,5.61327 -1.8719,-2.41196 -2.1581,2.60153 0.66201,-5.54333 -2.62359,3.1786 -1.55354,-2.86618 0.5726,5.70639 0.77692,17.61183 -4.0787,15.33619 10.56609,1.69922 20.14716,10.98365 19.09099,22.18697 -0.55502,8.84526 -6.83238,17.48672 -15.68389,19.48349 -0.65635,4.59807 -1.62986,10.5106 -3.81047,14.24195 -5.4723,-3.72753 -1.77183,-15.71558 -11.364092,-16.24036 -12.395766,-6.20002 -14.658709,-24.94044 -3.954559,-33.78849 3.997941,-6.05896 16.254741,-2.57897 12.828121,-11.86784 -0.26508,-3.94465 -0.85135,-11.02629 -2.42085,-8.07264 -1.53774,-1.52046 -0.39305,4.11676 -1.42163,-0.91747 -0.93142,4.32278 -1.98789,-2.31214 -1.62417,3.44215 2.44018,3.35711 4.97935,2.53667 1.34124,4.45992 8.72511,1.67994 -0.81559,12.34696 -2.47346,3.47749 -0.33651,-4.71061 1.55913,-12.85336 -1.287945,-9.66078 -0.568666,3.03917 -1.588071,-4.47583 -1.101147,1.04606 -2.334587,-4.02927 -0.414288,3.14396 -2.32909,-1.29345 1.28382,8.62853 -0.222706,1.29697 -1.316623,1.11194 0.05821,4.38311 -1.275892,-3.76616 -1.396268,1.4912 -1.743653,-5.03829 0.211222,2.83327 -2.089805,-0.86819 1.412637,3.17551 -2.805836,-2.3642 -0.403445,2.71799 1.791966,7.2013 -2.97075,-6.71673 -1.771409,-0.20033 -1.652377,-4.60628 -0.654588,3.80816 -2.540005,-1.77861 2.425726,6.07157 -2.958111,-2.18924 -0.584307,3.05304 -4.210223,-5.04575 2.898631,8.25485 -2.027023,-0.3184 -2.206918,-2.98697 1.397009,5.59354 -1.465052,0.0236 1.304821,4.95002 -3.097184,-3.10175 -0.86166,2.14345 -3.61397,-3.06 0.996583,3.19701 -2.655075,-0.73 1.793836,3.12603 3.403753,7.49553 -0.246386,1.7437 -1.600564,-1.81258 1.085022,3.61699 -1.844768,-0.55389 2.075962,5.38973 -2.30355,-1.9579 -0.222572,2.74143 -3.969182,-3.14763 1.261594,3.114 -2.431156,-0.0155 2.684166,4.60325 2.03046,4.20089 -1.005522,0.42456 1.128495,5.48134 -3.5188,-0.71086 -1.428152,3.37618 -2.665739,-0.4499 -2.225078,0.71504 0.347565,4.05063 -1.365256,-1.33301 -5.713969,-5.58493 -2.595207,-1.38122 -3.283495,-3.44958 0.653144,3.67839 -3.163435,-0.52436 4.117086,3.59271 -3.591248,-0.40339 0.869447,3.24767 -6.011578,-4.1932 6.020776,6.87807 -2.016651,0.3983 -2.409937,-1.48393 2.548095,3.2463 -1.736575,0.17113 2.606287,4.15043 -2.545933,-1.474 0.254458,2.77157 -3.830159,-1.59982 1.137454,2.05959 -2.251064,0.84502 4.774025,3.44096 2.973806,2.67361 -0.989891,0.61154 3.495445,3.79877 -2.107832,-0.86481 0.340794,2.59761 -3.318207,-1.19999 1.07389,1.49954 -2.086463,0.99834 4.176938,2.67438 -4.306091,-1.68803 1.415723,1.84286 6.242802,4.78565 -5.191813,-2.71049 -2.011939,1.27768 -4.204924,-1.98648 3.420249,2.37742 -1.998682,0.68375 4.669418,2.30863 -3.94009,0.0507 1.554995,2.52866 -6.993296,-2.00655 7.777065,5.0052 -2.009611,0.83859 1.20709,1.69054 -2.19884,0.26454 -0.510824,1.87038 0.672075,1.19824 -3.628191,-0.39896 0.328109,1.57375 -4.59102,-0.17508 2.505788,2.16606 -2.319719,1.1076 8.235813,3.36504 0.06404,0.79422 0.528013,1.87563 1.149622,1.47884 -1.836906,0.29356 -0.327487,1.76406 -4.248956,-0.36852 2.339462,0.93178 -1.336477,1.43137 4.817315,1.95961 -3.868568,0.0372 2.446979,1.90704 5.596495,1.95366 -5.564824,-0.93557 -1.967585,1.49907 -5.53618,-0.79045 5.080219,1.50027 -1.592177,1.28839 5.042674,0.13698 -2.804886,1.76582 2.213092,1.97601 -7.175278,0.611 9.136272,1.83717 -1.499634,1.55088 -2.489832,0.50039 3.904315,0.95312 -1.187302,1.1279 4.355445,1.70406 -3.323946,0.90308 2.00175,1.80999 -3.964395,1.51524 2.565391,0.42619 -1.448428,2.17769 6.053781,-0.58885 4.555556,1.16977 -0.41893,1.27859 6.068062,0.40238 -3.778391,1.25068 2.339403,1.56903 -5.395542,0.18431 2.445616,1.41105 -2.242307,1.85216 3.413156,0.78376 -0.788437,2.09782 5.303898,1.33709 -1.300366,0.25935 -7.97762,1.6431 -2.64914,1.69825 -5.056383,0.10412 2.5638,1.68162 -2.178522,2.13534 5.896091,-1.96209 -2.569176,2.97629 2.989748,0.96929 -6.72375,2.77187 8.333908,-0.47673 -0.07428,1.7307 -5.094689,0.68469 4.779471,0.80392 -1.943143,1.97585 6.013225,-1.64439 -2.632585,2.69037 2.82369,1.0879 -4.469655,3.07416 3.371241,-0.57712 -1.04568,2.31752 5.618664,-1.32256 5.134667,-0.92905 0.08273,1.19873 5.10626,-0.6128 -2.239246,1.6978 2.104832,1.12626 -2.835861,2.98949 3.96032,-0.87998 -0.376899,2.07185 4.198985,-0.15262 -2.839435,2.82719 2.723896,0.48295 6.636234,-1.92999 -6.986475,3.64629 0.266524,1.84309 -4.86746,3.32525 2.655918,-1.14048 -1.081576,2.59187 5.209691,-3.35124 -2.022206,2.74679 2.969151,0.27319 -2.197731,3.57188 7.124924,-4.18676 5.873005,-7.22699 2.906673,-1.94019 -2.137929,9.21662 2.865976,4.72481 2.854239,6.61362 -9.299364,-0.12891 -8.95629,5.29747 2.904848,-0.96547 -2.029354,1.66675 1.963866,0.48777 -2.631262,2.36265 0.204225,0.67563 0.150104,2.3751 3.488016,-2.66222 -3.104569,3.72814 2.338375,-0.33419 5.041573,-3.1096 -4.787064,3.97614 0.09817,2.20505 -3.783489,3.39619 3.351683,-2.13501 -0.204273,2.24709 4.786403,-4.24598 -2.135099,3.74104 2.750236,-0.25104 -4.791494,5.52763 6.699655,-4.55205 1.124479,1.10749 -4.042106,3.15956 3.833203,-1.25071 -0.846605,2.93254 4.14096,-4.6371 -1.028143,3.88658 3.061182,-0.87194 -2.86971,4.16988 2.778237,-0.39003 -0.09056,3.28869 3.62706,-4.13327 4.518774,-3.88297 0.648873,0.57004 4.617155,-3.39113 -0.892979,2.97241 3.003287,-0.38837 -1.895017,3.97101 1.041338,-0.69999 0.992946,2.18921 2.198719,-3.06837 -1.462009,4.09546 2.067672,-0.93624 3.466356,-3.89377 -2.351363,3.82087 0.789339,2.25709 -2.093279,2.7109 1.612173,-1.29208 1.153914,1.39086 1.085768,-2.28293 -0.131975,2.27898 1.98576,0.17048 -2.929925,4.79517 5.090974,-7.1937 1.70536,-0.27557 -3.568218,4.49264 2.73266,-1.18515 -0.401671,3.28702 1.37432,-2.16688 2.663231,-0.71543 2.684515,0.0722 0.434775,-0.35421 1.291583,0.19859 1.592349,0.21128 3.147054,-6.52397 0.540988,-0.18438 1.022457,1.33304 2.407409,-4.18795 -0.87051,2.91966 2.085338,-1.13299 -1.22311,5.7533 1.232628,-2.34503 1.067613,2.53076 1.670354,-5.56574 -0.07961,4.47997 2.085546,-2.13131 2.771776,-6.69363 -1.83043,6.55098 1.490112,1.07417 -0.572823,4.27421 0.499956,-0.99384 1.538692,1.72603 1.253263,-4.66546 -0.328896,4.21711 1.635151,-0.64748 -0.498214,5.80326 2.884393,-8.04133 1.423639,0.57472 -0.705065,3.71666 2.323914,-3.78878 1.200804,2.13105 0.44191,-5.38618 1.70954,3.53464 1.89326,-2.34774 1.03443,4.34949 0.97697,-2.70394 1.7533,2.16992 0.77653,-5.71754 1.27036,-4.82356 1.36466,0.18436 1.06547,-7.31766 0.6641,4.27557 1.38584,-0.76257 z m -2.20706,-5.66318 c -1.89746,-2.80255 6.43391,-0.0797 1.782,-4.06137 4.06448,-4.17048 -6.521356,-2.59192 0.29994,-4.30302 4.91996,-0.89637 3.53804,12.93772 -2.08194,8.36439 z m 7.05502,0.23453 c -8.28991,-10.09278 12.26539,-11.17865 4.08304,-0.16578 -1.1429,0.95358 -2.84916,0.93119 -4.08304,0.16578 z m 3.48544,-2.16967 c 2.78842,-9.60873 -8.38337,-0.42815 -0.3525,0.53342 z m -32.991118,-4.44491 c -1.951309,-3.52383 6.08313,0.65316 1.797616,-4.63438 3.384288,-4.06519 -5.218599,-1.47362 -0.495185,-3.90528 5.748704,-0.19025 4.808491,12.05772 -1.302431,8.53966 z m 6.310675,-0.0854 c -2.456348,-2.96019 6.70513,-0.12251 2.171263,-4.42323 -6.208248,3.3853 -0.846246,-9.74608 1.168114,-3.30786 -7.491653,-0.80248 10.232756,8.18074 -3.339377,7.73109 z m 40.114843,-0.67137 c 1.853,-3.96165 3.4711,-8.52278 0.43218,-8.33699 4.3224,-4.02168 5.8731,5.8768 1.35333,6.68192 6.33007,-0.64642 1.25065,3.08406 -1.78551,1.65507 z m 7.46245,-0.75261 c -0.41042,-1.3762 6.99193,-4.17843 0.19816,-4.12489 -5.24081,-4.41034 7.51554,-7.07308 1.11531,-3.11651 3.69807,2.5201 5.93002,9.14172 -1.31347,7.2414 z m -29.7536,-9.94704 c 2.33043,-3.65182 2.71388,-0.17683 0.72092,-0.42198 0.60454,0.65034 -0.91177,1.4296 -0.72092,0.42198 z m -1.32292,-0.78892 c -1.38153,-5.41071 2.24824,3.52363 0,0 z m 5.29167,0.53747 c 1.59398,-4.97172 8.71112,1.35092 6e-5,0 z m -37.835417,-4.1582 c -9.476018,-9.79668 11.868748,-12.26431 3.148961,-0.16544 -0.9402,0.58107 -2.144822,0.53837 -3.148961,0.16544 z m 2.439022,-1.86107 c 4.037404,-6.96276 -6.411274,-6.55328 -1.880175,-0.0936 0.42302,0.60506 1.45107,0.73153 1.880175,0.0936 z m 67.741705,-0.22924 c -0.94302,-2.44415 6.07563,-9.6172 0.0604,-6.78418 1.30014,-7.27749 8.78732,2.8859 2.01282,4.67459 6.75204,2.7178 1.32195,1.71912 -2.07322,2.10959 z m 7.21312,-1.00595 c -6.70324,-6.08964 8.10128,-13.33649 6.00964,-2.79875 -0.0905,2.87632 -3.75362,5.25343 -6.00964,2.79875 z m 3.77837,-1.69912 c 1.56812,-13.5974 -8.09143,3.78903 0,0 z m -39.19603,-0.50714 c -2.39282,-4.32267 -17.364786,3.29892 -14.297506,-5.54597 4.876766,-1.6317 7.196466,2.94798 10.163476,0.47506 -5.39238,4.94385 3.70521,0.0855 6.72296,1.13266 3.38829,0.77866 6.96242,-2.29709 1.86067,1.63978 -1.65236,0.23832 -3.72709,0.52392 -4.4496,2.29847 z m -9.1214,-1.35607 c -2.23079,-3.83614 -5.498642,2.17148 0,0 z m 0.5588,-1.61862 c 0.4211,-2.15734 -3.88738,3.8161 0,0 z m 3.34085,0.26458 c -0.85805,0.0379 -0.0185,2.10671 0,0 z m 2.4039,0.23628 c -0.97146,-1.01739 -0.45618,1.65413 0,0 z m 4.38452,-0.0851 c 1.77982,-2.86907 -1.9764,1.40423 0,0 z m 2.23006,-0.15119 c -0.59386,-1.02459 -0.34832,1.0032 0,0 z m -15.53192,-1.46352 c -2.23296,-3.21502 -5.595578,3.20125 0,0 z m 1.79321,0.0614 c -1.10361,-0.89819 -0.92894,1.59789 0,0 z m 1.30329,-1.0074 c -1.04899,-0.99137 -0.65513,1.50125 0,0 z M 59.858826,225.87748 c -8.560279,-0.89294 2.381911,-15.47438 -0.790692,-4.52792 -2.363646,2.7513 3.459532,-3.40666 3.057127,2.01197 0.266229,1.29061 -0.838361,2.77295 -2.266435,2.51595 z m 4.699794,-0.34343 c -3.965551,-2.34307 7.318822,-2.99919 0.218531,-4.4527 -6.577604,-1.8449 6.331292,-8.51835 0.86504,-3.39115 1.572091,2.05587 7.223662,8.26716 -1.083571,7.84385 z m 48.04048,-2.65518 c 0.5823,-1.88981 0.20343,1.84863 0,0 z m 41.00518,-0.19844 c -0.69836,-2.66759 -1.33722,-12.91255 1.26226,-6.28126 -0.22579,1.3939 1.77604,7.27238 -1.26226,6.28126 z m 4.12499,0.2831 c -4.32374,-2.22132 7.28176,-3.24411 0.031,-4.64623 -6.19885,-1.2469 4.85536,-8.66293 1.53558,-3.48208 -5.03327,0.81826 10.57433,5.9673 -1.56657,8.12831 z M 63.679169,200.94459 c -1.299318,-1.48457 7.552385,-3.89932 0.229059,-3.97414 -5.423322,-3.47454 6.587845,-7.62934 1.562821,-3.63723 -1.089456,2.48966 5.01437,4.9536 3.783012,-0.44261 9.8155,-5.4308 7.358997,15.37532 -1.118008,6.19247 -1.826635,0.79692 -1.833381,4.34988 -4.456884,1.86151 z m 9.449771,-1.52857 c 3.937988,-6.59472 -5.817513,-7.08328 -2.005095,-0.27472 0.340598,0.88141 1.490441,0.90674 2.005095,0.27472 z m 76.24725,-0.27477 c -9.74899,-7.3626 9.39183,-14.63286 3.96402,-1.47329 -0.76399,1.3683 -2.4962,1.94229 -3.96402,1.47329 z m 1.75053,-1.81988 c 4.74112,-7.31881 -6.6956,-6.18337 -1.03834,0.11638 z m -6.34694,1.3408 c -0.46377,-2.39369 -1.51145,-12.68349 1.12906,-6.97683 -0.22549,1.57852 2.2062,7.8369 -1.12906,6.97683 z M 79.063166,183.83072 c -2.976082,-2.99418 6.841409,-0.66404 1.991424,-4.58352 -6.003262,3.11748 -0.979027,-9.27073 1.494755,-3.43342 -6.146048,0.78236 7.162924,6.28778 -1.339538,8.61894 l -1.129509,-0.0508 z m 5.499243,-0.55553 c -1.04128,-1.93542 7.232725,-1.19063 2.071587,-3.38026 -7.248284,-0.34547 2.479559,-9.30062 0.853653,-4.24569 -2.993906,1.30269 7.280917,7.27029 -0.82627,8.41352 l -1.186424,-0.18297 -0.912542,-0.6046 z m 44.300991,-1.51873 c 0.9196,-0.65023 6.90951,-3.12317 1.22114,-3.31322 -4.77395,-5.11244 4.05826,-7.03765 1.34948,-2.25813 5.39869,0.16729 1.48257,10.09389 -2.57062,5.57135 z M 78.99702,275.1591 c -3.906321,-3.16743 -9.863187,-5.44151 -2.44965,-0.96246 l 1.194141,0.7198 z m -2.976563,-0.60428 c -2.879277,-2.33128 -1.576894,-0.25549 0,0 z m 69.572783,-2.66188 c 3.90596,-3.50773 -5.37405,2.49337 0,0 z m -74.53372,-0.69521 c -0.451154,-1.39261 -1.073183,0.23088 0,0 z m 76.83741,-1.09073 c 3.96353,-2.47769 12.45577,-12.51359 4.20437,-4.61184 -0.65878,0.96409 -5.99222,4.26702 -4.20437,4.61184 z m -77.895744,0.13229 c -3.061956,-5.40564 -3.693479,-0.41706 0,0 z m 0.530858,-0.78051 c -3.496407,-2.59723 2.332902,2.64797 0,0 z m -5.88867,-1.62372 c -2.193369,-4.25342 -4.820123,-2.77364 0,0 z m 2.116667,0.10518 c -2.140408,-2.89947 -2.904806,-1.70321 0,0 z m -3.250362,-3.37806 c -14.108263,-14.2409 -20.469985,-35.42804 -17.415187,-55.16257 -1.589576,0.38719 -0.893247,6.29649 -1.786683,4.65689 -0.297619,7.93108 -0.249754,16.18626 3.040292,23.4121 2.772621,10.31366 8.447016,20.05134 16.057646,27.55172 0.878921,0.99815 0.391348,0.0519 0.103932,-0.45814 z M 45.130353,230.43511 c 0.479797,-2.88247 0.796034,2.30173 0,0 z m 17.727083,32.27917 c -0.486314,-1.00357 -0.788203,0.58699 0,0 z m -3.246657,-0.57234 c -0.873845,-0.42337 -0.477523,0.53494 0,0 z m 94.122831,-0.62063 c -0.59379,-2.0477 -1.54353,0.65332 0,0 z m 3.84466,-1.33619 c 3.65232,-3.58639 -2.81786,1.60834 0,0 z m -97.804531,-1.20203 c -0.852166,-1.06025 0.301166,1.32671 0,0 z m 101.244111,-3.023 c -1.02907,-0.59804 -0.88853,0.97953 0,0 z m 1.44391,-2.10668 c -0.0171,-1.44465 -0.82782,0.86347 0,0 z m 2.45319,-3.88231 c -0.87386,-0.42338 -0.47751,0.53494 0,0 z m 2.71749,-7.36515 c 1.36656,-3.02789 -0.22915,-4.46402 -0.45005,-0.17436 z m 1.33753,-5.88017 c -1.11097,-1.27118 0.15756,5.08218 0,0 z m 2.01821,-6.48818 c -0.62234,-0.14896 0.57086,1.46482 0,0 z m -0.70991,-0.89205 c -0.53128,-0.99548 -0.21588,1.34879 0,0 z m 0.72226,-10.36338 c -0.45233,1.22224 0.59408,3.83776 0,0 z m -66.86809,-2.56997 c 0.99651,-1.34479 4.01215,-0.25769 1.68726,-5.20723 4.99919,-6.29212 -5.74541,-13.45104 0.53093,-20.01153 -2.92073,-2.03884 3.66578,-6.04237 -2.19499,-6.70512 3.22645,-2.06834 -1.83182,-3.82065 3.23308,-5.42145 -1.04478,-5.54883 -4.39796,3.49342 -4.64532,-1.16597 -3.561113,0.76747 -1.62328,4.05245 -5.527105,2.41316 0.841631,4.72905 -4.994507,0.0745 -2.825085,5.53508 -5.705706,-1.89967 -2.613136,3.755 1.503249,3.05317 -1.008691,2.50215 0.909308,5.83602 -3.098731,3.23286 6.418014,-5.34886 -8.415142,-3.54951 -2.11366,-0.21318 -6.810058,1.31402 2.586363,4.13526 -3.153364,5.78288 1.58836,2.84533 3.444845,0.91378 0.747011,5.05368 3.963267,-0.49038 0.207495,7.87641 6.201546,2.90217 -0.94105,-4.15828 2.579983,-3.22739 1.558118,0.96996 1.19772,1.03248 -8.129231,0.21661 -2.741895,4.27183 2.22147,-3.45223 0.523056,6.85424 4.469071,1.21095 0.06815,6.55479 4.164195,-0.7423 4.078245,4.88448 l 0.87377,0.0827 z m -6.561543,-9.34729 c -3.787674,-7.30385 8.337293,-3.29688 1.884969,0.72948 l -0.694811,-0.0323 z m 2.167607,-1.00872 c 1.680536,-5.59215 -4.165115,0.0138 0,0 z m -2.576518,-13.29451 c 3.303864,-1.75475 -3.45909,-3.99354 1.388887,-5.00482 0.402479,1.06212 3.243687,6.68276 -1.388887,5.00482 z m 16.905404,23.76719 c 3.62056,-1.09986 0.15102,-4.06209 4.61769,-1.6205 1.55515,-3.50306 -0.45931,-2.74068 3.44321,-2.39423 0.56671,-4.22066 -0.54571,-2.11709 2.85326,-4.0662 -0.36206,-3.13566 -11.06247,-1.48941 -6.01871,-6.3882 -0.075,2.54889 3.67155,-3.8022 4.65849,1.96699 0.99928,5.33692 5.75019,-0.94663 1.60354,-1.43293 5.86482,-1.629 -0.85558,-3.31789 3.60262,-6.24178 -3.64747,-2.26543 -1.22329,-0.68137 -0.6304,-4.01269 -4.76594,-0.76321 -1.15398,-1.3428 -1.86432,-4.48021 -5.48954,2.67432 0.50266,-6.28574 -4.8975,-3.09274 1.65965,-6.91519 -5.31568,0.98278 -2.71999,-5.3913 -3.22467,-0.47334 -3.19937,2.26425 -5.24365,-1.61212 -2.16444,2.92497 -1.70506,-0.0456 -4.26542,-0.51515 -0.16632,2.45414 4.95537,7.14488 -0.0466,9.73446 5.44642,9.00172 -0.85648,17.27479 1.37358,26.96256 1.47985,4.8621 0.59251,-1.86657 3.53424,2.58404 z m 5.71851,-24.49758 c 2.35742,-0.98723 -2.16606,-6.65208 1.76381,-3.81666 1.47139,0.30218 1.70592,5.92474 -1.76381,3.81666 z m -73.332631,15.38507 c 0.674881,-4.84114 0.727021,-5.52771 0,0 z m 75.708321,-2.10889 c 0.83273,-7.21483 -4.053,1.09427 0,0 z m 48.03284,-0.73446 c -0.62234,-0.14892 0.57087,1.4648 0,0 z m -0.53468,-1.33945 c -0.54749,0.43762 0.65671,1.27423 0,0 z m -0.38337,-1.25677 c -0.54711,-2.8079 -0.17492,2.77713 0,0 z M 47.776186,201.86011 c 2.121301,-4.94956 -1.535837,1.41679 0,0 z m 2.38125,0 c -0.486314,-1.00357 -0.788203,0.58699 0,0 z m 0.183354,-1.66422 c -0.531608,0.49814 0.626769,1.56468 0,0 z M 168.866,200.05856 c -0.54749,0.43762 0.65671,1.27423 0,0 z m -117.914814,-0.7276 c -0.593852,-1.02462 -0.348339,1.00322 0,0 z m 117.391154,-0.3142 c -0.62234,-0.1489 0.5709,1.46479 0,0 z M 48.634693,198.6695 c -0.102144,-2.30748 -0.809163,2.38023 0,0 z m 118.997747,0.39687 c -0.34835,-1.00323 -0.59386,1.02462 0,0 z m 0.18074,-1.37252 c -0.62233,-0.14896 0.57086,1.46481 0,0 z M 49.624219,196.47107 c -0.489333,-1.08489 -0.483892,2.29589 0,0 z m 117.918861,-0.11668 c -0.54749,0.43762 0.65671,1.27423 0,0 z M 49.809009,195.3126 c -0.622313,-0.14895 0.570844,1.46479 0,0 z m -9.70574,-1.83371 c -0.994045,-0.5104 -0.247223,1.30626 0,0 z m 70.064441,-10.65754 c -0.13714,-6.04058 -2.50828,4.76481 0,0 z m 42.82152,-0.83407 c 3.12484,-3.28066 -3.7566,2.20975 0,0 z m -5.20054,-4.95521 c 4.11855,-3.59204 -2.67447,1.00078 0,0 z m -74.886601,-1.31518 c -1.084433,-3.45842 -1.822691,-0.0453 0,0 z m 31.381541,-1.37016 c 2.04048,-8.10815 -5.752532,0.98681 0,0 z m 8.25611,-0.94494 c 2.86223,-9.39707 -7.89647,-1.46948 -0.75653,0.6414 z M 63.651186,171.5214 c 9.568025,-6.85081 19.429949,-14.02325 31.370257,-15.93809 10.364647,-2.1211 21.155267,-1.72635 31.460677,0.53825 -15.18144,-4.72568 -32.253614,-3.31799 -46.584265,3.58961 -3.341754,2.44396 -13.138665,7.46447 -4.898769,1.72959 0.1571,-0.63409 -12.838403,6.94188 -6.29621,5.34605 -1.250256,0.46977 -6.83111,4.23361 -5.05169,4.73459 z m 82.012524,-1.75763 c -1.03561,-2.10615 -1.58324,0.27753 0,0 z m -93.056174,-1.53206 c 0.298306,-3.07906 -1.769511,-1.76064 -3.440407,-3.85917 -1.078161,1.259 2.771571,4.81126 3.440407,3.85917 z m -3.315335,-3.54138 c 0.166479,-1.64398 1.323891,2.15821 0,0 z m 93.296119,3.01151 c -0.85216,-1.06024 0.30118,1.32671 0,0 z m 2.48288,0.24843 c -0.87384,-0.42338 -0.47753,0.53494 0,0 z m -70.115127,-0.89848 c 1.56311,-1.98792 -2.889729,1.94163 0,0 z m 71.360267,-0.0277 c -2.63888,-2.86229 -2.06796,0.92111 0,0 z m -90.86221,-0.11063 c 0.531051,-1.33904 -1.492885,1.64768 0,0 z m 53.48232,-0.10812 c 4.32591,3.18313 4.77321,-9.56699 2.86706,-3.32834 0.27879,-5.40821 -1.63829,2.71137 -1.55795,-2.81837 -1.31706,4.66102 -0.96976,-2.59468 -2.02763,2.1238 -0.0365,-4.58075 -1.24003,6.3748 0.71852,4.02291 z m -53.331672,-1.48563 c 3.618361,-5.87708 -9.800047,-4.95883 -2.920807,-0.40481 1.248302,2.64523 1.392571,1.89175 2.920807,0.40481 z m -1.70372,-1.35408 c -1.027848,-1.58066 1.587426,0.55773 0,0 z m 2.719771,1.87665 c 1.729928,-2.11599 -2.313874,1.63768 0,0 z m 83.952451,0.25592 c -0.87384,-0.42338 -0.47753,0.53495 0,0 z m 3.37895,-0.63389 c -0.34831,-1.00324 -0.59389,1.02459 0,0 z m -0.83036,-0.39688 c -2.07299,-1.61552 -2.81987,-0.94334 0,0 z M 48.2188,163.3098 c -1.265092,-4.54877 -8.088921,-6.31646 -2.143159,-2.2672 0.124959,0.76907 1.24851,4.81308 2.143159,2.2672 z m 92.35448,0.14255 c -0.87386,-0.42338 -0.4775,0.53495 0,0 z m -94.384594,-0.65279 c -1.034548,-2.26316 -1.386344,0.60778 0,0 z m 86.320314,-0.6855 c -1.27423,-0.65671 -0.43762,0.54749 0,0 z m -80.749395,-1.71325 c 2.213277,-5.34715 -10.561167,-15.84559 -12.21195,-8.49828 3.877293,0.51196 8.218575,12.69738 12.21195,8.49828 z m -4.909461,-4.46152 c 0.593852,-1.02462 0.348338,1.00322 0,0 z m 83.542186,5.38102 c -1.27423,-0.65671 -0.43762,0.54749 0,0 z m 11.16109,-1.17473 c -2.90982,-1.34459 1.05044,1.31439 0,0 z m -63.085567,-0.6188 c -0.486295,-1.00355 -0.788216,0.58695 0,0 z m 61.515627,-0.072 c -2.40344,-0.77108 0.67017,0.16873 0,0 z m -99.358706,-2.20292 c -2.054538,-1.25299 0.831775,1.65417 0,0 z m 1.955427,-0.12196 c -0.904897,-1.46502 -0.190113,1.34123 0,0 z m 40.313912,0.23702 c -0.873845,-0.42337 -0.477523,0.53494 0,0 z m 52.652087,0 c -0.87384,-0.42338 -0.47753,0.53494 0,0 z m -51.455951,-0.54454 c -1.274214,-0.65675 -0.437619,0.54753 0,0 z m 50.270831,0 c -1.27422,-0.65675 -0.43762,0.54753 0,0 z m -1.25677,-0.35394 c -0.38901,-1.07286 -0.764,0.93608 0,0 z m -91.413541,-0.11866 c -1.333589,-2.86185 -2.03155,-0.0812 0,0 z m 89.092931,-0.83494 c -0.87386,-0.42338 -0.47751,0.53494 0,0 z m -91.474181,-0.36931 c -0.820595,-1.17086 -0.666756,0.99413 0,0 z m 50.006251,0 c -1.067222,-1.20932 -0.941557,1.0526 0,0 z m 39.88043,-0.15986 c -0.87384,-0.42338 -0.47753,0.53494 0,0 z M 90.974451,154.7074 c -1.554981,-0.73539 -0.519548,0.57281 0,0 z m 36.898829,0.0137 c -0.87384,-0.42338 -0.47753,0.53495 0,0 z M 93.221459,154.17 c -2.174035,-0.70182 -0.625516,0.53678 0,0 z m 33.202121,0.007 c -1.27423,-0.65671 -0.43762,0.54749 0,0 z m -1.65364,-0.51455 c -3.09042,-1.06321 -0.9339,0.87514 0,0 z m -85.725004,-0.22066 c -0.486316,-1.00357 -0.788204,0.58699 0,0 z m 57.88069,-0.0651 c -2.174035,-0.70182 -0.625516,0.53678 0,0 z m 25.353354,-0.0943 c -4.10571,-0.44964 1.44222,0.83049 0,0 z m -80.588211,-0.51766 c -0.95687,-1.11518 -0.956906,1.11518 0,0 z m 57.216147,0.0894 c -1.274214,-0.65675 -0.437619,0.54753 0,0 z m 21.166664,-0.0162 c -3.58099,-0.61684 -1.1347,0.46363 0,0 z m -16.20573,-0.33778 c -1.87275,-1.04788 -3.86757,1.02743 0,0 z m 13.03437,-0.18624 c -2.7585,-0.6777 -0.87714,0.50236 0,0 z m -6.60722,-0.27395 c -3.43651,-0.23682 -4.57884,0.32129 0,0 z m -5.3759,-9.44304 c 0.50296,-7.52508 -1.33423,1.09092 -1.06464,-0.77013 0.44306,-12.86801 -4.610356,5.11502 1.06464,0.77013 z m -2.02568,-2.59833 c 0.57636,-3.44445 0.27148,2.38238 0,0 z m 12.35152,-0.7276 c 12.25252,-3.97291 -3.76059,-0.26898 0,0 z m -15.875003,-0.50753 c -7.32089,-4.04846 -15.467812,-9.57607 -15.948658,-18.80427 0.191163,-4.64827 -0.836028,-13.83201 -1.605544,-3.93643 -0.435002,10.69967 7.49564,20.01883 17.554202,22.7407 z M 115.68516,137.463 c -0.11362,-1.59349 -2.13267,1.78361 0,0 z m -11.28814,-0.58888 c -0.91726,-1.76417 -0.43995,2.32764 0,0 z m -12.939998,-0.49835 c -2.712559,-4.16804 -3.450943,-0.21198 5.1e-5,0 z m 25.639998,0.24938 c -1.06724,-1.20931 -0.94154,1.05261 0,0 z m -18.360924,-1.25677 c 5.014574,-9.24269 -8.448519,-9.5942 -5.8581,-18.03345 -3.083754,-12.39774 12.822824,-11.22853 20.687844,-10.25159 7.14035,-0.18221 4.289,15.48905 4.14332,14.1072 0.38531,-4.25417 -1.40005,-17.2602 -0.91669,-5.87222 4.08333,7.56757 -8.87352,13.5642 -0.66551,19.58129 6.9653,-2.4968 11.69944,-10.64783 11.86216,-18.11768 1.18732,-13.67573 -13.14238,-25.094154 -26.2424,-21.580578 -13.203111,2.076969 -21.526591,17.799998 -15.508294,29.798328 2.152529,4.87717 7.166099,10.3617 12.49767,10.3687 z m 20.559574,-13.4276 c 0.26043,-2.60529 0.12083,3.09963 0,0 z m -0.29499,-6.87917 c 0.36028,-1.21105 0.0696,1.68842 0,0 z m -0.11772,-1.54299 c -1.61182,-4.1347 0.97144,-3.89326 0,0 z m -15.62812,19.88193 c -0.62233,-0.14895 0.57089,1.4648 0,0 z m -17.434367,-1.90808 c -1.18558,-1.24735 0.318801,1.34916 0,0 z m -1.00262,-1.3213 c -0.827179,-2.10379 -0.493047,1.22484 0,0 z m 41.274997,-0.75923 c -1.39211,0.31541 -0.2113,1.77845 0,0 z M 83.93591,128.8195 c -0.522817,-1.43188 -0.522859,1.43186 0,0 z m -0.530328,-1.52136 c -0.547502,0.43762 0.656728,1.27422 0,0 z m 19.933108,-0.19844 c 4.32668,-0.001 -4.306276,0.29924 0,0 z m -20.559419,-0.59531 c -1.142891,-5.02151 -3.074365,-6.52135 -0.523483,-0.14359 l 0.545054,0.91344 z m 45.520759,-1.90475 c -0.36431,-1.03307 -0.87898,1.48049 0,0 z m -29.201926,-8.87702 c -0.02125,-5.13163 -0.918313,-6.45759 -0.899983,-0.24294 -0.459356,5.42617 1.729667,10.15759 1.075294,1.99437 z m 5.471226,4.16719 c 0.68127,-4.57649 -1.81504,-15.74816 -1.22962,-4.69291 -0.23805,2.29862 1.26237,11.93485 1.22962,4.69291 z m 3.91565,3.39595 c 2.25729,-4.17053 -0.2064,-18.96121 1.65586,-6.66772 -2.98342,4.88467 3.91639,10.24951 2.87324,2.44047 -0.80207,-3.19921 -0.13095,-13.85156 0.55368,-4.78158 -0.96948,4.11453 2.31243,13.70204 2.73785,3.98461 0.39868,-6.94362 -1.96564,-8.66371 -2.43344,-7.97787 -5.06778,-6.19017 -11.59867,1.1407 -7.62549,6.88724 0.0356,1.88921 -2.18308,8.32257 2.2383,6.11485 z m -0.64838,-0.39999 c -3.27141,-3.72395 0.43285,-20.25942 0.78313,-8.31194 -0.28955,2.04008 0.99694,7.90039 -0.78313,8.31194 z m -0.0476,-4.7819 c -0.45727,-10.85511 -0.77096,8.61215 -0.006,0.64462 l 0.005,-0.51586 z m 3.2022,4.54547 c -1.16578,-3.7191 -0.80154,-19.58303 0.28215,-7.99896 0.1184,2.65825 0.30849,5.37967 -0.28215,7.99896 z m 1.2493,-0.70901 c -0.74863,-4.65127 -0.37985,-17.21735 -0.007,-5.3653 0.0399,1.76105 0.82477,3.68391 0.007,5.3653 z m 2.30604,-1.71979 c 0.18099,-4.47103 0.18099,4.47103 0,0 z m 0.74014,-1.5875 c 0.22939,-1.20423 0.22939,1.20423 0,0 z m -13.13865,4.60945 c -0.12444,-4.44336 -1.34816,-18.8634 -1.21227,-6.91337 0.1658,2.15724 -1.135217,5.56712 1.21227,6.91337 z m 26.85521,-0.90529 c 0.21226,-2.16867 -1.31145,2.01588 0,0 z m 0.18335,-2.04548 c -0.53164,0.49822 0.62691,1.56472 0,0 z m -48.341567,-1.46024 c -0.800732,-5.86655 -0.491861,3.94166 0,0 z m 13.149373,0.81028 c -0.622317,-0.1489 0.570862,1.46478 0,0 z m 35.724734,-2.39779 c -0.49592,0.66682 0.63834,2.4773 0,0 z m -0.006,-2.36471 c -0.62234,-0.1489 0.5709,1.46479 0,0 z m -34.924998,-0.26458 c -0.622319,-0.14891 0.570859,1.4648 0,0 z m 34.766658,-2.41507 c -0.64839,-4.02321 -3.2065,-8.07614 -0.7793,-1.76866 0.12698,0.41089 1.21623,4.70201 0.7793,1.76866 z m -45.530737,-2.04885 c -0.814548,-0.93906 -0.343131,1.51697 0,0 z m -0.618521,-1.63804 c -0.547502,0.43762 0.656728,1.27422 0,0 z m 0.270094,-1.04179 c -0.622317,-0.14891 0.57086,1.4648 0,0 z m 0.523656,-1.07487 c -0.547502,0.43762 0.656728,1.27422 0,0 z m 0.792064,-1.12655 c 0.437684,-2.33679 -1.393623,2.51341 0,0 z m 41.789904,-0.70115 c -1.55724,-0.98058 1.61576,2.18822 0,0 z m -40.243655,-1.81032 c -0.348295,-1.00323 -0.593889,1.02459 0,0 z m 2.908544,-3.436556 c -0.481952,-0.615334 -0.854046,1.184646 0,0 z m 33.038181,-0.664488 c -1.22702,-1.99639 0.0611,1.981784 0,0 z m -0.88013,-1.04712 c -4.21943,-4.104071 0.38669,2.920794 0,0 z M 97.349396,95.026375 c 3.642684,-0.868996 10.564594,-2.32449 2.808124,-2.040034 -1.432141,-0.08351 -7.577787,4.227264 -2.808124,2.040034 z m -2.080501,-1.264171 c -0.835161,-1.152728 -0.40716,1.092626 0,0 z m 62.725155,83.457146 c -1.45445,-2.00516 2.00516,1.45445 0,0 z m -1.7387,-1.70089 c 0.6385,-1.03904 0.63853,1.03904 0,0 z m 1.7744,-1.06626 c -0.8243,-1.82503 1.6965,1.67035 0,0 z m -3.46212,-0.69363 c -2.00465,-2.80062 2.62437,2.38627 0,0 z M 142.71199,158.1398 c 1.43688,-0.55069 -0.11943,0.60644 0,0 z m -10.22736,-47.44426 c 0.22938,-1.20422 0.22938,1.20422 0,0 z m -0.57094,-1.85209 c 0.62374,-1.89146 0.6237,1.89148 0,0 z"
         id="path922"
         inkscape:connector-curvature="0" />
      <path
         style="display:inline;fill:#4e7f57;fill-opacity:1;stroke-width:0.26458335"
         d="m 100.93119,287.05819 c -13.169507,-1.80177 -26.19917,-6.93684 -35.957087,-16.15227 6.587887,0.30942 11.282573,6.82939 17.820992,8.56662 25.381815,11.11521 57.469085,4.05124 75.171795,-17.46996 17.07274,-19.39286 20.53668,-49.012 8.87781,-71.99819 5.12955,7.59416 -3.79293,-9.95666 1.58146,-1.72393 14.34115,26.48765 8.20911,62.46071 -15.03739,81.94682 -13.6041,12.34151 -32.23236,18.12646 -50.44806,16.94966 l -2.00952,-0.11878 z m -0.7675,-1.34077 c -0.957754,-1.55857 -0.957798,1.55856 0,0 z M 69.112943,272.48825 c -2.890956,-1.74435 0.673384,1.60141 0,0 z m 36.460457,8.5759 c -0.21224,-2.03067 1.07495,0.8156 0,0 z m 1.73404,-0.12485 c 0.53129,-0.99549 0.21588,1.34877 0,0 z m 3.175,-0.11668 c 0.20936,-1.84741 0.5775,1.88678 0,0 z m 1.75205,0.0462 c -0.0993,-3.27378 0.74504,2.06359 0,0 z m -9.53873,-0.0162 c 0.0739,-1.99153 1.33729,0.76472 0,0 z m 5.45614,-0.0498 c 1.32951,-1.31731 1.59874,1.397 0,0 z m 3.12429,0.0198 c 0.59389,-1.02459 0.34828,1.00323 0,0 z m 1.98437,0 c -0.31849,-2.04376 1.55333,0.80835 0,0 z m -12.10469,-0.19824 c -1.623732,-1.59481 2.60747,0.47222 0,0 z m 3.50573,-0.0663 c 0.59387,-1.02459 0.34833,1.00322 0,0 z m 9.78959,0.0283 c 1.2117,-1.95456 2.06989,1.30172 0,0 z m 2.11666,-0.45758 c 0.72141,-0.90068 0.82366,1.65206 0,0 z m 1.32292,-0.12789 c 1.5741,-1.00023 1.58887,0.90856 0,0 z m 1.87297,-0.39093 c 0.22499,-0.99725 0.21142,1.26963 0,0 z m -10.70147,-0.11024 c -0.2869,-4.73843 1.89176,2.09589 1.09514,-5.19323 -0.40482,-0.37547 3.74183,7.10999 -1.09514,5.19323 z m -3.55408,-0.46054 c 3.4854,-1.24832 -0.11711,1.70709 0,0 z m 2.18898,0.20751 c 1.25026,-0.69811 0.56179,0.93829 0,0 z m -6.20652,-0.20999 c -0.0356,-1.46287 5.07968,0.28707 0,0 z m 2.5912,-0.13749 c -0.47794,-4.705 1.76451,0.0916 0,0 z m 8.51725,0.11544 c 0.95589,-0.95374 0.95593,0.95373 0,0 z m 1.32292,-0.0491 c 2.02636,-2.49672 4.34304,1.32587 0,0 z m -13.75833,-0.25954 c 0.63849,-1.03905 0.63852,1.03904 0,0 z m -2.090296,-0.8599 c 3.412246,-2.65438 0.305911,2.97932 0,0 z m 19.817356,0.66146 c 1.37118,-0.73186 3.24144,0.73603 0,0 z m -21.166646,-0.60575 c 0.608407,-1.28286 0.568876,1.93859 0,0 z m 23.426776,0.29306 c 1.61354,-1.85293 2.64259,0.53235 0,0 z m -14.41005,-0.43696 c 0.22497,-0.99726 0.21144,1.26957 0,0 z m 8.24791,-0.50712 c 0.30915,-1.68023 0.10014,2.15596 0,0 z m -19.91047,0.39687 c 0.02048,-3.39306 1.837007,0.81622 0,0 z m 1.322917,0 c 0.638539,-1.03905 0.638494,1.03906 0,0 z m 27.252083,0 c 0.90878,-0.90703 1.1457,1.24849 0,0 z m -3.66239,-0.52916 c 0.22938,-1.20422 0.22938,1.20422 0,0 z m 1.32292,0 c 0.22938,-1.20422 0.22938,1.20422 0,0 z m -27.399681,0.0621 c 0.60037,-2.10642 0.99094,1.10496 0,0 z m 19.726761,-0.32668 c 0.22938,-1.20422 0.22938,1.20422 0,0 z m 11.79833,0.34245 c 2.33225,-2.4906 2.05707,0.63539 0,0 z m -32.874481,-0.34245 c -6.420207,-1.09936 2.260776,-1.7764 0,0 z m 9.149011,-0.15434 c 0.225,-0.99724 0.21142,1.26964 0,0 z m -4.731806,-0.50712 c 0.360117,-1.21105 0.07018,1.68825 0,0 z m 1.322917,-0.26458 c 0.360117,-1.21105 0.07018,1.68825 0,0 z m 25.104729,0.24254 c 0.22497,-0.99726 0.21144,1.26957 0,0 z m 1.32291,0 c 0.22499,-0.99726 0.21144,1.26959 0,0 z m 3.68328,0.15434 c 0.66672,-0.99416 0.82062,1.17084 0,0 z m -11.07072,-0.52917 c 0.22938,-1.20422 0.22938,1.20422 0,0 z m 4.7625,0 c 0.22938,-1.20422 0.22938,1.20422 0,0 z m -22.479783,-0.39688 c 0.360119,-1.21105 0.07018,1.68825 0,0 z m 30.044773,0.48624 c 1.27423,-0.65671 0.43762,0.54749 0,0 z M 92.511659,275.3767 c 0.224956,-0.99726 0.211499,1.26958 0,0 z m 1.343803,-0.11025 c 0.229379,-1.20422 0.229379,1.20422 0,0 z m -7.053234,0.071 c -6.947408,-3.01531 2.39161,-0.36746 0,0 z m 42.994792,-0.0627 c 1.02906,-0.59807 0.88853,0.97953 0,0 z m -6.59369,-0.42723 c 0.22498,-0.99726 0.21143,1.26962 0,0 z m 7.78698,0.15002 c 1.04799,-0.67876 0.24879,0.92207 0,0 z m -52.042899,-0.441 c 1.436892,-0.55068 -0.119444,0.60643 0,0 z m 11.182998,-0.23819 c 0.224969,-0.99725 0.211483,1.26962 0,0 z m 31.750001,0 c 0.22499,-0.99725 0.21143,1.26961 0,0 z m 10.20218,0.022 c 0.71687,-1.29191 0.33629,1.4065 0,0 z m -40.650153,-0.13228 c 0.593869,-1.02459 0.348319,1.00321 0,0 z m 41.936463,-0.26458 c 0.59385,-1.02462 0.34833,1.00323 0,0 z m 0.8583,-0.64586 c 1.09469,-1.72565 0.0492,2.03611 0,0 z m -51.655638,-0.15221 c 1.047984,-0.67877 0.248784,0.92207 0,0 z m -2.251625,-0.96461 c -4.892121,-1.82382 4.472424,-1.00159 2.724275,-4.55367 -0.900624,1.12934 -0.652805,6.73441 -2.724275,4.55367 z m 55.297913,0.68136 c 0.93959,-1.89029 2.66054,0.2387 0,0 z m -52.366608,-0.66052 c 0.224956,-0.99726 0.211499,1.26958 0,0 z m 1.324676,0.15434 c 0.01861,-2.10662 0.857923,-0.038 0,0 z m 2.644074,-0.15434 c 0.224956,-0.99726 0.211499,1.26958 0,0 z m 6.085417,0 c 0.224956,-0.99726 0.211499,1.26958 0,0 z m 11.461191,-0.0639 c -3.73643,-3.49276 7.30236,0.38414 1.36139,-4.202 4.09549,-4.71483 -5.27129,-1.96748 -0.17011,-4.49153 4.42208,0.0703 4.51963,11.63966 -1.19128,8.69353 z m 7.30334,0.1392 c -8.31955,-4.69062 6.09715,-15.15323 4.65681,-3.52237 -0.007,2.39235 -2.12475,4.84714 -4.65681,3.52237 z m 2.18281,-1.34765 c 5.17406,-6.59632 -6.72375,-7.95577 -2.05871,-0.43886 0.37689,0.78499 1.43746,0.97033 2.05871,0.43886 z m 23.48177,0.7808 c 0.52142,-1.48286 0.52879,1.01139 0,0 z m -55.5625,-0.1479 c 0.593852,-1.02462 0.348339,1.00322 0,0 z m 1.322917,-0.26459 c 0.593889,-1.02459 0.348295,1.00323 0,0 z m 55.297913,-0.2802 c 0.78821,-0.58695 0.48631,1.00356 0,0 z m -58.716608,-0.66789 c 0.224969,-0.99725 0.211483,1.26962 0,0 z m 59.311928,-0.29735 c -3.40889,-5.67062 -1.08889,-4.05084 1.02113,0.64929 z m -62.628935,0.1054 c -3.214066,-1.21661 0.04883,-2.03603 0.642875,-0.20599 z m 11.254507,-0.0726 c 0.224963,-0.99726 0.211489,1.26962 0,0 z m -23.039639,-0.35921 c 0.333098,-2.53772 2.320924,1.51216 0,0 z m 15.631306,-0.16996 c 0.224969,-0.99725 0.211484,1.26962 0,0 z m 60.304111,0.13873 c 0.78822,-0.58699 0.48632,1.00358 0,0 z m 2.11667,-1.32292 c 0.7882,-0.58698 0.4863,1.00357 0,0 z m 1.05833,-0.77813 c 0.59386,-1.02462 0.34835,1.00323 0,0 z m 0.79375,-0.66148 c 0.59366,-1.45447 0.24986,1.41674 0,0 z m 0.92792,-0.92301 c 0.48191,-0.61536 0.85407,1.18466 0,0 z m -63.87955,-0.70017 c -0.959119,-2.78108 5.976111,0.41271 2.061133,-4.39424 2.060639,-4.02109 -5.141697,-2.20069 0.02436,-3.9472 3.451633,1.98952 3.599871,11.76134 -2.085493,8.34144 z m 6.992255,0.38535 c -4.290997,-2.75399 6.457886,-0.31986 1.880092,-4.62762 -5.761655,3.5423 -2.931128,-9.03704 0.515967,-3.47568 -8.108037,0.44194 9.828276,6.14492 -2.396059,8.1033 z m 58.457825,-0.72988 c 6.79707,-6.93014 1.70913,0.25752 0,0 z m -18.99941,-0.68113 c 3.26905,-3.17872 2.35735,-8.17097 0.98273,-8.13589 7.47012,-2.18625 -2.14983,9.40141 3.96596,7.75132 -1.22812,1.19634 -3.50826,1.17444 -4.94869,0.38457 z m 8.16659,-0.0448 c -4.21001,-2.4119 6.56054,-0.76299 1.63798,-4.723 -7.54778,2.07235 0.86331,-8.80442 -0.14901,-3.52854 -4.86259,0.88718 9.02174,7.43323 -1.48897,8.25154 z m 10.18645,-0.8784 c -1.66699,-1.90834 1.61799,0.62016 0,0 z m 1.25678,-0.51935 c -1.79437,-2.05302 1.96224,1.34994 0,0 z m 0.9813,-0.82101 c -0.25722,-1.3465 1.15144,1.26402 0,0 z m 2.52442,-0.90844 c 1.50224,-2.43868 1.7887,-0.0891 0,0 z m -3.84733,-0.41447 c -0.25722,-1.3465 1.15144,1.26402 0,0 z m 1.73067,0.0176 c -0.62755,-1.00672 1.50013,1.06649 0,0 z m 0.91516,-0.81135 c -0.25724,-1.34651 1.15145,1.264 0,0 z m 1.33567,-0.50854 c 0.48195,-0.61533 0.85406,1.18467 0,0 z m 1.38544,-0.23407 c 0.9203,-2.45033 2.12833,0.44002 0,0 z m -0.99044,-1.09182 c -0.62757,-1.00676 1.50014,1.06649 0,0 z m 2.91042,-0.52917 c 0.59387,-1.02459 0.3483,1.00321 0,0 z m 0.61736,-1.19063 c 2.5345,-4.7275 5.15226,-4.69904 0,0 z m -4.8507,-0.92604 c -0.62754,-1.00672 1.50014,1.0665 0,0 z m -91.257209,-4.92293 c -32.82094,25.38055 -16.41047,12.69028 0,0 z m 99.723879,0.6896 c 0.63852,-1.03904 0.63852,1.03904 0,0 z m 0.42218,-0.9555 c 0.48484,-1.86863 2.30762,-0.63763 0,0 z m -91.99934,-1.13735 c -8.434801,1.1574 2.54722,-14.93862 -1.453093,-4.3016 -0.536936,3.55317 5.447154,-1.28208 2.559447,4.44855 l -0.490498,0.12253 -0.615858,-0.26948 z m 3.87981,-0.16818 c -6.732247,-6.04371 7.633269,-13.18639 5.442458,-2.57994 -0.11522,2.62802 -3.318156,4.44707 -5.442458,2.57994 z m 3.452696,-1.20631 c 3.744332,-8.65546 -8.356679,-4.04024 -1.387807,0.55177 l 0.76681,-0.14728 z m 85.766014,0.37449 c -4.05359,-1.66388 -5.99266,-4.615 -0.38151,-0.98762 3.00586,-2.12392 2.0699,-0.0242 0.38151,0.98762 z m -18.36123,-1.81803 c 1.43384,-1.5758 4.82995,-7.3256 0.0768,-6.41906 6.27443,-5.73155 3.23695,7.20898 2.57798,6.11806 7.09323,0.54833 -4.71111,3.37054 -2.65478,0.301 z m 7.68361,0.47906 c -6.97342,-5.08235 6.55537,-14.06682 5.27466,-3.43092 0.1322,2.62207 -2.79112,5.71393 -5.27466,3.43092 z m 3.05118,-1.23584 c 4.1035,-7.48618 -7.09848,-6.5185 -2.10749,0.20826 0.59959,0.76648 1.64825,0.43488 2.10749,-0.20826 z m 6.84922,-0.86313 c 1.43687,-0.55068 -0.1194,0.60641 0,0 z m 2.82774,-0.0838 c 0.59386,-1.02462 0.34833,1.00322 0,0 z m 0.45258,-0.93617 c 0.77199,-0.10071 -0.14247,-0.47373 0,0 z m 0.47346,-1.03267 c 1.15,-2.08511 0.28202,1.37767 0,0 z m 0.4549,-1.19706 c 0.46718,-2.70378 2.24308,-2.82815 0,0 z m -2.35659,0.0747 c 1.43688,-0.55065 -0.11944,0.6064 0,0 z m -2.11667,-0.79372 c 1.43689,-0.55067 -0.11942,0.6064 0,0 z m 2.91042,-1.32292 c 1.43688,-0.55065 -0.11944,0.6064 0,0 z m 1.32291,-1.05833 c 1.43687,-0.55068 -0.1194,0.60641 0,0 z m 1.42824,-0.49078 c 0.95317,-0.31875 2.19724,14.79286 0.77293,4.96524 -0.26734,-1.65355 -0.52182,-3.30916 -0.77293,-4.96524 z m 0.47345,-1.16112 c -1.91486,-1.17263 1.9335,-0.1193 0,0 z m 0.36857,-1.49625 c -0.6031,-4.33709 1.37928,2.95703 0,0 z m 0.1606,-1.16899 c -0.71605,-3.0224 2.04378,-0.40139 0,0 z m -1.90169,-1.76824 c 1.43689,-0.55067 -0.11942,0.6064 0,0 z m -56.42517,-0.41457 c 2.6291,-13.19842 -7.395,-32.63709 -1.08346,-41.07968 -2.93154,-2.05053 3.54542,-5.68269 -2.32469,-6.27482 3.80241,-1.07183 -2.18235,-4.4511 2.71714,-4.29646 0.0503,-6.40164 -0.4703,-15.41316 -0.37537,-20.13768 2.0733,-0.9885 7.7151,1.16776 1.95042,0.23112 0.65175,5.65825 -2.25242,-2.9969 -1.50466,3.08611 -1.89567,8.3061 9.39777,-0.91928 7.29582,8.44387 1.13794,6.959 -10.9069,1.47273 -4.00963,5.273 -5.75483,-0.10495 5.14508,7.53995 -1.70346,8.63019 4.18764,17.91474 0.50659,30.55789 1.29284,46.12057 l -0.85848,0.34503 -1.3965,-0.34125 z m 0.57604,-9.61871 c -0.87386,-0.42337 -0.47751,0.53494 0,0 z m 1.19613,-0.0154 c -1.27423,-0.65671 -0.43762,0.54749 0,0 z m -2.35609,-0.76222 c -0.85216,-1.06024 0.30118,1.32671 0,0 z m 4.05819,-1.49341 c -0.62234,-0.14894 0.57086,1.46482 0,0 z m -4.92484,-0.74414 c 3.10066,-2.24707 4.45758,-2.73662 0.003,-0.82746 -0.25949,-0.0362 -0.92226,3.25843 -0.003,0.82746 z m 4.74192,-0.98388 c -0.7987,-0.97341 0.99956,3.46977 0,0 z m -2.04834,0.0149 c -1.27423,-0.65671 -0.43762,0.54749 0,0 z m 1.43005,-22.17066 c -1.45796,-1.95677 0.2445,1.74179 0,0 z m -0.33388,-11.93931 c 1.62766,-6.73396 -4.66003,-0.0813 0,0 z m -3.12331,-1.89525 c -1.47665,0.0485 1.11689,1.83033 0,0 z m 5.28092,-8.44049 c 3.77412,-9.71091 -8.6126,-2.11967 -0.56165,0.58694 z m 54.24252,57.97397 c -0.28509,-1.91563 2.24538,-0.94974 0,0 z m -1.40464,-1.62913 c 1.86698,-0.6542 0.56108,0.51912 0,0 z m -1.96783,-0.52752 c 1.43689,-0.55066 -0.11947,0.60643 0,0 z m 4.00572,-0.36184 c -1.40468,-2.22558 2.02634,-1.33557 0,0 z m -2.15364,-0.43196 c 1.4369,-0.55068 -0.11945,0.60643 0,0 z m 1.50482,-2.20052 c -3.48801,-0.78103 4.81278,0.54319 0,0 z m 1.42528,-0.85989 c 1.93458,-2.95523 -4.29495,-5.95445 0.24844,-3.06469 -0.25796,0.10422 0.51577,3.57701 -0.24844,3.06469 z m -2.1498,-0.6502 c 2.16237,-0.62009 0.61003,0.49982 0,0 z m -2.24701,-1.31909 c 1.5649,-0.62681 0.49798,0.53211 0,0 z m 1.45017,0.008 c 1.27422,-0.65675 0.43762,0.54753 0,0 z m -11.27869,-0.95669 c -0.89636,-3.54317 -0.53089,-13.16072 1.03138,-4.89835 -0.0212,1.54046 0.69167,3.98775 -1.03138,4.89835 z m 3.03398,-0.74034 c -0.73514,-1.12893 7.26059,-2.10874 1.77006,-3.48744 -7.18605,-0.18972 3.88411,-8.98806 -0.51044,-3.40998 0.0253,1.75397 9.73022,8.30934 -1.25962,6.89742 z m 9.89836,-1.55296 c -5.00862,-0.62541 5.77171,0.10554 0,0 z m 1.3438,-1.22691 c 0.22499,-0.99725 0.21142,1.26963 0,0 z m -5.93253,-1.1836 c 3.47971,-1.86366 10.52199,1.37504 0,0 z m -47.86492,-1.21805 c 1.27422,-0.65675 0.43762,0.54753 0,0 z m 52.13946,-0.006 c 1.43688,-0.55065 -0.11944,0.6064 0,0 z m 1.56044,-0.34843 c 0.58229,-1.88981 0.20343,1.84863 0,0 z m -52.1124,-0.18669 c -0.25942,-5.42574 1.82977,1.7854 0,0 z M 167.434,215.5457 c 0.22251,-3.26969 1.37385,0.50459 0,0 z m 0.19844,-2.72086 c 0.63849,-1.03905 0.63852,1.03904 0,0 z m -2.4474,-0.96908 c 1.27423,-0.65671 0.43762,0.54749 0,0 z m 2.4474,-0.20603 c 0.5214,-1.48286 0.52879,1.01136 0,0 z m 0,-1.08957 c 0.53129,-0.99549 0.21588,1.34877 0,0 z m -0.3638,-1.1215 c -0.39204,-1.8998 1.09071,0.33823 0,0 z m -0.42995,-1.37646 c -0.28645,-1.17757 1.87321,1.29112 0,0 z m -1.37253,-0.97443 c 1.43688,-0.55069 -0.11943,0.60644 0,0 z m 1.39342,-0.50279 c 0.22498,-0.99726 0.21143,1.26962 0,0 z m -78.16231,-2.19604 c -0.06875,-3.68171 1.443253,2.55738 0,0 z m 75.18139,0.58219 c 1.43688,-0.55069 -0.11943,0.60644 0,0 z m 1.5875,-0.52917 c 1.43687,-0.55068 -0.1194,0.60641 0,0 z m 0.84336,-0.0995 c 0.78822,-0.58696 0.48632,1.00358 0,0 z m -75.720443,-0.6943 c 1.436886,-0.55067 -0.119419,0.60641 0,0 z m 73.818753,0 c 1.43689,-0.55067 -0.11942,0.6064 0,0 z m 1.46795,-0.28633 c -0.55506,-1.53344 1.31461,0.2004 0,0 z m -77.862038,-1.01018 c 0.224956,-0.99726 0.211499,1.26958 0,0 z m 75.071168,0.23818 c 1.43688,-0.55069 -0.11943,0.60644 0,0 z m 1.32292,-0.26458 c 1.4369,-0.55068 -0.11945,0.60643 0,0 z m 1.13863,-0.52482 c -2.13142,-2.80603 1.118,-0.72473 0,0 z m -78.052082,-2.13875 c 0.93725,-1.26448 0.820448,2.24091 0,0 z m 77.118992,-0.46299 c -1.96945,-4.51434 -1.43363,-5.45947 0,0 z m -36.08829,-2.16076 c -0.91745,-6.71311 0.78773,3.41648 0,0 z m 16.51878,1.62295 c -1.35916,-3.67946 -0.47523,-13.13499 0.95689,-4.37191 -0.15399,1.11805 1.09543,4.4495 -0.95689,4.37191 z m 3.52123,-0.19011 c -7.78558,-9.98511 11.89196,-10.63417 3.46527,0.1843 -1.01653,0.77631 -2.4989,0.55094 -3.46527,-0.1843 z m 3.14463,-1.39076 c 3.9806,-8.84329 -8.10772,-5.08802 -1.34965,0.68167 l 0.63635,-0.13655 z m -25.40189,1.54107 c 1.4369,-0.55068 -0.11946,0.60643 0,0 z m -38.823254,-1.03193 c 0.22495,-0.99726 0.211515,1.26959 0,0 z m 73.748254,-0.55557 c 1.4369,-0.55068 -0.11945,0.60643 0,0 z m -73.738356,-1.67134 c 0.212394,-3.07167 0.268917,3.05037 0,0 z m 75.417236,-0.52917 c 0.22939,-1.20423 0.22939,1.20423 0,0 z m -0.71799,-1.03446 c -1.91905,-3.10624 -0.41804,-3.29799 0,0 z m -68.73281,-0.72943 c 0.886165,-2.81047 0.765546,-7.4748 1.668692,-3.03662 -2.04458,2.75969 2.892832,3.41134 -1.668692,3.03662 z m -5.426281,-0.61736 c 0.229379,-1.20422 0.229379,1.20422 0,0 z m 9.369832,0.11339 c 2.667589,-1.07304 -2.583927,-6.07136 1.39068,-4.15961 -1.610024,-0.0211 3.793799,5.05515 -1.39068,4.15961 z m -8.882441,-1.30402 c 0.186887,-2.30705 0.561405,2.34266 0,0 z m 65.76308,0.15516 c 5.20494,-1.02223 3.00011,-8.68062 5.63132,-1.95282 -2.45804,-0.57986 -3.32261,2.04341 -5.63132,1.95282 z m 6.20359,-1.08119 c 0.63852,-1.03904 0.63849,1.03905 0,0 z m -1.37253,-0.44532 c 1.43688,-0.55069 -0.11943,0.60644 0,0 z m -2.23715,-1.53911 c 1.67741,-1.75166 -0.47939,1.43587 0,0 z m -0.40868,-1.10673 c 1.4369,-0.55068 -0.11945,0.60643 0,0 z m 8.27258,-1.03194 c 0.225,-0.99724 0.21142,1.26964 0,0 z m -11.73311,-0.93682 c 1.42209,-0.9874 -0.4403,0.83036 0,0 z m 3.98766,-0.32744 c -4.66069,-5.00594 1.99656,-0.46421 0.0307,0.41431 z m -35.56219,-0.18139 c 0.60626,-1.57976 0.81394,0.76323 0,0 z m 2.86121,0.11759 c -0.30958,-1.36152 1.17524,1.25451 0,0 z m 40.69012,0.15898 c 0.6385,-1.03904 0.63853,1.03904 0,0 z m -41.76174,-1.28613 c -4.42851,-4.64768 2.51083,1.19132 0,0 z m 31.17841,0.38839 c 0.63422,-0.96873 0.83423,0.45123 0,0 z m 11.1125,-0.22674 c -1.74863,-1.54066 1.12333,0.0313 0,0 z m -69.230629,-1.78596 c -4.056698,0.35782 1.730373,-3.52117 0.762624,0.77398 z m 67.827379,0.35688 c 1.23069,-0.91622 0.48155,1.14296 0,0 z m -34.95098,-0.6391 c 1.06115,-0.33044 6.90937,-3.74568 0.71162,-3.54588 -5.17113,-2.20718 4.32566,-7.74259 1.4825,-3.70398 -3.07982,0.92456 7.90498,7.74363 -0.83176,8.0423 l -0.76247,-0.22977 z m -8.45485,-0.64329 c -5.27884,-2.21991 1.93305,-0.17322 0,0 z m 31.31533,0.13229 c 2.30702,-1.34005 -0.17915,1.01547 0,0 z m 2.23808,-0.0176 c -0.25722,-1.3465 1.15144,1.26402 0,0 z m -3.50528,-0.35258 c 1.1856,-1.24726 -0.31885,1.34909 0,0 z M 99.919992,180.3912 c 0.224978,-0.99725 0.211428,1.2696 0,0 z m 15.137538,-0.36473 c 1.15757,-2.50389 -0.47674,2.69453 0,0 z m 38.02282,0.26279 c 0.84504,-1.51413 0.71588,1.76897 0,0 z m -55.82708,-0.55309 c 0.788208,-0.58695 0.486311,1.00357 0,0 z m 2.156309,-0.18282 c 1.845711,-4.18005 9.590121,-1.77068 2.525741,-1.52276 -1.17668,-1.8525 -2.730575,2.78626 -2.525741,1.52276 z m 51.024941,0.0661 c 1.67741,-1.75164 -0.47943,1.43587 0,0 z m -39.09695,-0.66146 c 0.21182,-1.66334 0.21182,1.66334 0,0 z m 40.94903,0.22797 c -1.86316,-2.25031 1.32141,0.78823 0,0 z m -54.289189,0.12044 c 1.436892,-0.55068 -0.119444,0.60643 0,0 z m 19.512059,-0.22455 c -0.90215,-1.57711 2.28768,1.80602 0,0 z m -1.73537,-0.62828 c 1.30961,-0.58181 1.25874,0.91781 0,0 z m 34.39584,-0.009 0.43089,-1.07687 z m -35.2392,-0.46094 c 1.43688,-0.55069 -0.11943,0.60644 0,0 z m -1.33945,-0.52411 c 1.27422,-0.65675 0.43762,0.54753 0,0 z m 34.12684,-0.12218 c 1.42209,-0.9874 -0.44029,0.83036 0,0 z m -36.44194,-0.23175 c 1.40252,-0.90387 1.61327,1.17269 0,0 z m 38.36458,-0.41476 c -2.41808,-3.19822 1.9869,1.28259 0,0 z m -2.8547,-0.22002 c 1.18561,-1.24723 -0.31887,1.34911 0,0 z m -1.49379,-0.13125 c 0.29022,-1.41993 0.80767,0.75657 0,0 z m -43.71685,-1.08633 c -6.135637,-3.82997 4.44147,-11.82961 2.27975,-7.27883 -5.082556,1.76128 8.18949,4.63813 0.11184,8.11839 l -1.16177,-0.0872 z m 2.84933,-0.95882 c 2.0835,-7.89681 -6.354185,1.62872 0,0 z m 43.52498,1.00599 c 0.32033,-2.2547 0.88638,0.67136 0,0 z m -1.15324,-0.50883 c 0.23317,-2.16114 1.98027,0.50729 0,0 z m -6.48726,-1.67557 c 0.60092,-1.23728 -0.18424,1.41475 0,0 z m 5.89195,0.29409 c 1.02907,-0.59804 0.88853,0.97953 0,0 z m -1.25874,-0.93534 c -4.37306,-1.89985 -7.0075,-5.75294 -1.04832,-1.22446 -0.97823,-1.90724 3.10695,2.6217 1.04832,1.22446 z m -10.77809,-0.32973 c -0.0619,-4.65371 5.51847,-7.13345 1.58562,-1.83114 -0.35793,-0.3498 -0.61696,2.63263 -1.58562,1.83114 z m 6.74516,0.22454 c 0.46111,-1.35561 1.12764,0.0685 0,0 z m -1.04992,-0.48907 c 0.76395,-3.6319 1.15621,0.80313 0,0 z m 1.86456,-0.74965 c 0.22499,-0.99725 0.21143,1.26961 0,0 z m -4.74428,-1.16858 c 0.6287,-3.05863 1.11628,-0.21293 0,0 z m 1.35462,-0.11036 c 1.25662,-2.47064 0.20859,0.87818 0,0 z m -8.51659,-1.89606 c 0.22499,-0.99725 0.21143,1.26961 0,0 z m -33.845781,-1.1686 c 0.229389,-1.20419 0.22937,1.20422 0,0 z m 28.289531,0.11025 c 0.22498,-0.99725 0.21144,1.26957 0,0 z m 7.40833,0 c 0.22498,-0.99725 0.21143,1.2696 0,0 z m -13.20828,-0.63941 c 0.22939,-1.20423 0.22939,1.20423 0,0 z m 13.89247,-0.72764 c 0.79499,-2.06929 2.85231,2.11308 0,0 z m 2.42031,0.54687 c 1.43688,-0.55069 -0.11943,0.60644 0,0 z m -39.331528,-0.8776 c 0.229389,-1.20419 0.22937,1.20422 0,0 z m 29.083278,0.11025 c 0.22498,-0.99725 0.21143,1.2696 0,0 z m 2.64584,-0.26464 c 0.22498,-0.99726 0.21143,1.26962 0,0 z m 1.32291,0 c 0.22499,-0.99725 0.21142,1.26963 0,0 z m 2.62495,-0.35917 c 0.66277,-2.05189 0.59643,1.51749 0,0 z M 94.099159,164.5162 c 0.224955,-0.99725 0.211498,1.26958 0,0 z m 7.194921,-0.63941 c 0.20209,-2.12873 0.20209,2.12873 0,0 z m 37.44916,0.87759 c 1.43687,-0.55068 -0.1194,0.60641 0,0 z m -45.987886,-0.49676 c 0.531285,-0.99548 0.215885,1.34879 0,0 z m 26.245326,-0.24897 c 0.36028,-1.21105 0.0696,1.68842 0,0 z m 4.7527,0.13229 c 0.22938,-1.20422 0.22938,1.20422 0,0 z m 1.32292,-0.26428 c 0.22938,-1.20422 0.22938,1.20422 0,0 z m 4.9853,0.26458 c -0.77692,-1.15512 1.70582,1.12745 0,0 z m -41.37126,-0.39839 c 0.124467,-1.2835 1.104841,1.01592 0,0 z m 1.266748,0.0344 c -0.893156,-2.43958 2.011448,0.15604 0,0 z m 6.554013,-0.29749 c 0.360117,-1.21105 0.07018,1.68825 0,0 z m 23.661699,0.45039 c -0.39204,-1.89979 1.0907,0.33822 0,0 z m 6.31666,-0.51653 c -2.97283,-2.75719 4.05662,1.38602 0,0 z m 2.51381,0.48242 c -4.63692,-2.90882 1.56715,0.48627 0,0 z m -33.824891,-0.54857 c 0.229379,-1.20422 0.229379,1.20422 0,0 z m 4.782108,-0.52917 c 0.211833,-1.66333 0.211823,1.66337 0,0 z m 16.668753,0 c 0.21183,-1.66333 0.21181,1.66337 0,0 z m -25.562008,0.31583 c 2.383321,-2.20754 3.910075,-0.46833 0,0 z M 113.20394,162.157 c 0.28058,-2.14312 0.1125,2.6273 0,0 z m 2.08277,0.66145 c 0.2294,-1.20419 0.22938,1.20422 0,0 z m 6.35,0 c 0.2294,-1.20419 0.22938,1.20422 0,0 z m 1.32292,0 c 0.22938,-1.20419 0.22936,1.20422 0,0 z m -24.357461,-0.39688 c -1.000541,-3.14977 2.285291,-1.40166 0,0 z m 4.757411,-0.57326 c -1.26499,-5.68346 1.31128,2.73679 0,0 z m 1.36341,0.44097 c 0.21182,-1.66334 0.21182,1.66334 0,0 z m 7.15443,-0.26459 c 0.20209,-2.12872 0.20207,2.12876 0,0 z m -14.592847,0.19844 -0.10874,-0.62115 z m 20.657777,-0.0661 c 0.36024,-1.21107 0.0696,1.6884 0,0 z m 6.20712,0.27599 c 0.27816,-1.40475 1.3295,0.78413 0,0 z m -4.91489,-0.29804 c 0.22498,-0.99725 0.21144,1.26957 0,0 z m -24.722824,-0.24254 c 0.677839,-1.8154 1.066988,1.41661 0,0 z m 1.326168,0.008 c 0.102251,-2.03268 0.778724,1.38172 0,0 z M 120.5673,161.7183 c 0.73666,-2.19817 0.8464,1.20796 0,0 z m 15.26553,0.3898 c 1.43689,-0.55067 -0.11942,0.6064 0,0 z m -33.81706,-0.811 c -0.75401,-3.95309 1.10009,1.82135 0,0 z m 12.41715,-0.13229 c 3.71871,-3.44436 -0.71454,3.04248 0,0 z m 7.42713,0.52917 c 2.52614,-1.15497 1.63487,1.13972 0,0 z m -2.64636,-0.59532 c 0.63276,-1.4621 0.63272,1.46212 0,0 z m -18.52084,-0.38126 c 0.66278,-2.0519 0.59645,1.51753 0,0 z m 17.19792,0.2242 c 1.25875,-0.91777 1.30957,0.58178 0,0 z m -13.62604,-0.5044 c 0.40289,-0.98774 0.94545,1.11105 0,0 z m 8.86354,-0.008 c 0.88853,-0.97953 1.02906,0.59807 0,0 z m 27.51667,-1.26539 c -6.47581,-2.16661 0.28457,-2.38288 1.02021,0.60257 l -0.35124,-0.0656 z m 0.11633,-1.73397 c -3.66148,-0.58393 -3.76864,-2.41299 0,0 z m -35.63665,-0.078 c 1.27423,-0.65671 0.43762,0.54749 0,0 z m 1.38907,0.003 c 2.24513,-1.70717 1.72551,0.52616 0,0 z m -24.698479,-1.48112 c -3.953642,-10.13238 11.876333,-7.98941 17.563394,-10.60055 4.768885,-3.38313 2.364405,3.34913 6.867695,-1.42313 -3.02219,-2.864 5.03345,5.34009 6.74412,1.0311 6.36398,-0.36797 15.57771,3.08026 19.01893,4.03994 -3.76259,-1.05689 9.91131,3.5747 1.46803,3.37325 -2.20474,1.11199 2.8927,-2.78058 -1.32836,-0.71533 -7.05097,5.10836 -15.93522,-2.03716 -24.18156,-0.0204 -8.848331,0.20389 -17.669529,1.98951 -25.862997,5.3481 -0.09659,-0.34425 -0.192621,-0.68878 -0.289252,-1.033 z m 47.981809,-3.10885 c -1.37132,-1.25513 -1.18737,0.97472 0,0 z m -3.19705,-0.0972 c -3.76732,-1.65114 -1.47499,0.65137 0,0 z m -3.15295,-0.69656 c -0.34829,-1.00322 -0.59387,1.02459 0,0 z m 7.01146,0 c -0.83515,-1.15273 -0.40718,1.09263 0,0 z m -9.19427,-0.45409 c -3.02074,-0.63187 -0.96337,0.477 0,0 z m -4.69636,-0.33966 c -1.62856,-1.24726 -1.44585,1.00756 0,0 z m 3.71731,-0.66825 c 2.07259,-1.90677 -5.71378,2.0947 0,0 z m -3.18814,-0.71383 c -1.69566,-0.94609 -1.18635,1.58304 0,0 z m 6.15156,-0.11607 c -1.27422,-0.65675 -0.43762,0.54753 0,0 z m 1.25677,-0.8857 c -5.97431,-0.27768 3.12436,0.75342 0,0 z m 5.29167,0.28363 c -1.23126,-0.97498 -0.93359,1.03709 0,0 z m -4.36562,-1.07478 c -3.23538,-1.35332 0.67763,1.00296 0,0 z m -17.72709,-0.79375 c -0.38898,-1.07287 -0.76403,0.93605 0,0 z m 16.93334,0 c -2.87423,-0.61171 -3.14714,0.2064 0,0 z m -3.64354,-0.95361 c -0.87385,-0.42338 -0.47751,0.53494 0,0 z m -3.03719,-0.54454 c -1.27422,-0.65675 -0.43762,0.54753 0,0 z m 17.58664,10.76761 c 0.5535,-1.67234 1.21546,2.05816 0,0 z m -31.94372,-0.0377 c 1.0469,-0.76327 3.21018,0.67815 0,0 z m 29.9234,-0.331 c 3.96248,-1.97915 0.66267,0.66846 0,0 z m 7.38628,-0.16951 c 0.66672,-0.99416 0.82062,1.17084 0,0 z m -3.30729,-0.26459 c -5.55193,-1.57651 3.65541,-1.01012 0,0 z m -6.48229,-0.49485 c -6.71101,-1.56903 8.7746,-3.63641 1.09998,-0.2326 4.53306,-0.13346 0.14718,1.13464 -1.09998,0.2326 z m 0.39687,-0.56348 c 3.3265,0.34493 -1.29065,-1.36687 0,0 z m 6.61459,-1.5875 c -6.81377,-1.25375 6.55286,-1.25624 -7e-5,4e-5 z m 0.26458,-1.85208 c -3.89036,-1.33989 -5.86385,-3.11937 0,0 z M 126.9748,147.3409 c 1.61897,-1.74517 1.21039,1.41394 0,0 z m -16.27739,-2.4297 c 1.43688,-0.55068 -0.1194,0.60641 0,0 z m -2.78963,-1.32553 c 1.5649,-0.62681 0.49799,0.53212 0,0 z m 2.90902,-0.007 c 2.72183,-0.61913 0.8787,0.48006 0,0 z m -14.35728,-2.60078 c -5.822108,-3.55494 -3.741389,-2.65443 1.107636,-0.41787 -3.330579,-3.85633 7.089724,2.31269 -1.107636,0.41787 z m 18.25625,-0.0722 c 2.1741,-2.11732 10.2037,-4.66818 3.57761,-1.04066 l -1.72035,0.79869 z m 0.74414,-1.28667 c 1.43688,-0.55069 -0.11942,0.60643 0,0 z m -18.520832,-0.79375 c 1.436887,-0.55068 -0.11944,0.60643 0,0 z m 18.239712,-0.52365 c 1.27423,-0.65671 0.43762,0.54749 0,0 z M 89.433936,136.757 c -3.084087,-3.83431 5.102624,4.16468 0,0 z m 27.200064,1.00423 c 5.71896,-4.04181 6.1638,-2.28062 0,0 z m -18.450119,-0.66784 c -14.858712,-4.38692 -19.617777,-25.61037 -8.475935,-36.14866 8.528808,-9.519569 25.013744,-9.899763 33.337024,0.0785 5.8638,8.46833 -6.14777,-7.481191 -11.80521,-5.909901 -12.997965,-3.461943 -27.58764,7.213311 -27.095228,20.920411 -0.09684,7.78387 4.190441,16.638 11.912507,19.16174 6.851741,-0.36259 2.652212,-10.01594 0.971026,-10.7022 6.325735,-0.38951 12.842345,-1.02212 18.910655,0.0417 -4.18227,4.37254 -18.963768,-3.05622 -15.79588,8.32395 -0.0619,1.47274 -0.0206,3.89903 -1.958959,4.23451 z m 2.442829,-11.64733 c -1.960323,-1.52644 -1.525407,1.59777 0,0 z m 1.38906,-0.46302 c -0.34829,-1.00322 -0.59387,1.02459 0,0 z m 12.13158,10.87695 c -1.77303,-2.76381 -0.7083,-11.44571 -0.48991,-3.46862 -0.31218,7.79811 13.92014,-5.43603 4.59676,2.6931 -1.02354,0.68066 -3.01829,2.26392 -4.10685,0.77552 z m 7.92714,-1.53269 c 1.43688,-0.55069 -0.11943,0.60644 0,0 z m 0.57878,-0.45241 c 0.63421,-0.96876 0.83425,0.45124 0,0 z m -0.0496,-2.98718 c 1.43688,-0.55068 -0.1194,0.60641 0,0 z m -17.392,-2.88401 c 0.22497,-0.99726 0.21144,1.26957 0,0 z m 19.69846,-0.17639 c 1.86728,-3.4485 4.77783,-11.54997 2.16542,-3.41555 -0.43914,0.52028 -1.45272,4.74699 -2.16542,3.41555 z m 4.11404,-0.35278 c 0.22499,-0.99725 0.21143,1.26961 0,0 z m 0.52917,-1.05833 c 0.22497,-0.99726 0.21144,1.26957 0,0 z m -16.37348,-9.23837 c 0.36026,-1.21105 0.0696,1.68843 0,0 z m -17.778663,-7.83352 c 3.473907,-4.23824 17.517883,-1.9441 15.885693,-1.67457 -5.33906,0.13558 -10.79275,-0.0978 -15.885693,1.67457 z m 20.376963,-0.43471 c -5.1719,-1.55914 -1.16344,-3.32616 0,0 z m 11.41481,-0.8599 c 0.22939,-1.20423 0.22939,1.20423 0,0 z m -1.36469,-1.85208 c 0.59387,-1.02459 0.34833,1.00322 0,0 z m -41.010417,-0.15949 c 0.610267,-2.39299 1.36681,0.38005 0,0 z m 1.756402,-8.439468 c 0.593664,-1.454454 0.249845,1.416732 0,0 z m 0.624848,-0.661458 c 0.593866,-1.024607 0.348322,1.00322 0,0 z m 1.852084,-1.5875 c 1.862517,-1.467248 -0.265179,1.078027 0,0 z m 1.10558,-0.874701 c 3.576377,-3.428366 13.733753,-5.294692 14.964143,-4.835722 -5.210326,0.736087 -10.285746,2.443026 -14.964143,4.835722 z M 115.9064,94.285358 c -3.8134,-2.115861 -18.951955,-2.467389 -6.44542,-2.14646 2.10726,0.444902 4.97457,0.29733 6.44542,2.14646 z M 96.674494,93.846047 c 1.436877,-0.550701 -0.119406,0.606405 0,0 z m 1.041797,-0.523655 c 1.274221,-0.65672 0.437616,0.547494 0,0 z M 99.176534,92.7851 c 1.564686,-0.626759 0.498132,0.531592 0,0 z m 2.015356,-0.386574 c 3.69664,-0.249414 -2.514423,0.788092 0,0 z m 17.44302,0.124604 c 1.43687,-0.550705 -0.11939,0.606404 0,0 z m -4.49792,-1.852084 c 1.43687,-0.550711 -0.11938,0.60641 0,0 z m -1.99587,-0.531779 c 1.56469,-0.626764 0.49813,0.531597 0,0 z m -2.91182,-0.27109 c 2.7214,-0.618879 0.87896,0.478928 0,0 z"
         id="path920"
         inkscape:connector-curvature="0"
         sodipodi:nodetypes="ccccccccccccccccccccccccccccccccccccccccccccccccccccccccccccccccccccccccccccccccccccccccccccccccccccccccccccccccccccccccccccccccccccccccccccccccccccccccccccccccccccccccccccccccccccccccccccccccccccccccccccccccccccccccccccccccccccccccccccccccccccccccccccccccccccccccccccccccccccccccccccccccccccccccccccccccccccccccccccccccccccccccccccccccccccccccccccccccccccccccccccccccccccccccccccccccccccccccccccccccccccccccccccccccccccccccccccccccccccccccccccccccccccccccccccccaacccccccccccccccccccccccccccccccccccccccccccccccccccccccccccccccccccccccccccccccccccccccccccccccccccccccccccccccccccccccccccccccccccccccccccccccccccccccccccccccccccccccccccccccccccccccccccccccccccccccccccccccccccccccccccccccccccccccccccccccccccccccccccccccccccccaacccccccccccccccccccccccccccccccccccccccccccccccccccccccccccccccccccccccccccccccccccccccccccccccccccccccccccccccccccccccccccccccccc" />
      <path
         style="display:inline;fill:#1b4b29;fill-opacity:1;stroke-width:0.26458335"
         d="m 102.15386,286.91742 c -8.872302,-0.071 -27.573136,-7.12242 -27.912591,-10.23226 -4.166337,-5.30938 7.239269,3.77315 10.876487,3.97086 19.365044,7.33068 42.400404,5.2345 59.498594,-6.71253 6.21216,-4.71271 13.25558,-8.59543 16.62728,-15.34721 3.01843,-2.15283 6.41487,-12.71626 7.79821,-11.42493 -1.59226,4.88162 3.7656,-6.60806 1.75159,-7.48329 3.09894,-0.60062 3.53832,-11.91395 3.64392,-18.51857 -1.07571,-3.77585 -0.47391,-20.08155 1.1577,-8.38148 1.79775,14.22156 -1.80596,28.97594 -9.02472,41.29526 1.52533,-6.86234 -3.1164,7.45818 -6.16489,8.21619 -5.31533,5.9666 -11.13406,12.33961 -18.76893,16.0492 -11.84899,6.91715 -25.86406,9.65411 -39.48265,8.56876 z m -1.95049,-0.80313 c 0.20028,-2.71455 -2.443267,1.21014 0,0 z m 33.03323,-4.49792 c -0.95691,-1.11518 -0.95687,1.11519 0,0 z m 17.4625,-10.19576 c -1.42225,-0.80165 -0.91557,1.5722 0,0 z M 152.23551,270.1 c -0.74545,0.40904 -0.24572,1.1324 0,0 z m -41.66062,7.01846 c 0.18494,-4.00109 0.18494,4.00109 0,0 z m -39.647662,-1.63913 c -4.873016,-3.21424 1.371562,-0.68456 0,0 z m -3.356901,-3.03953 c 1.436885,-0.55067 -0.119413,0.6064 0,0 z m 37.749363,-0.15204 c -4.40108,-2.64191 6.65153,-0.58322 1.06171,-4.16514 3.09239,-2.97676 -5.5575,-4.86167 0.911,-4.47412 2.02129,1.91761 2.40809,10.09276 -1.97271,8.63926 z m 6.79993,-0.20033 c -7.59847,-3.75189 4.83508,-14.20097 4.44823,-4.19556 0.60019,2.55861 -1.86827,5.30197 -4.44823,4.19556 z m 2.53728,-1.20168 c 4.71255,-7.343 -7.50804,-7.59536 -2.43825,-0.087 0.64779,0.75821 1.75044,0.63375 2.43825,0.087 z m -34.008475,0.61031 c 2.992443,-5.72093 0.998592,0.11477 0,0 z m 72.896335,-2.18281 c 1.41434,-2.82077 0.10284,2.33833 0,0 z m -70.57899,-3.57188 c -3.746751,-1.86993 5.507084,-1.13672 3.204067,-2.98628 0.32446,1.62047 -1.462567,4.0412 -3.204067,2.98628 z m 5.201462,-1.05833 c 6.682833,-0.9502 1.244504,-3.95123 -0.838443,-5.49617 -0.3074,-4.43089 6.655339,-2.26563 1.414084,-0.64009 4.486701,1.62396 5.628184,9.0239 -0.575641,6.13626 z m 40.306868,-0.79942 c 0.97752,-4.21558 4.94761,-4.72565 1.21072,-0.50947 6.27172,-0.51946 -0.07,2.89276 -1.2107,0.50942 z m 8.34921,-0.10475 c 7.04574,-2.25286 -7.88566,-7.43317 1.2552,-8.49965 0.4604,1.36161 -4.3006,1.65816 0.53887,3.63171 3.52162,1.45655 -0.10296,6.68057 -1.79407,4.86794 z m -1.11726,-0.86707 c 0.7976,-1.09394 0.68897,1.33519 0,0 z m -51.338422,-1.12537 c 0.04561,-3.38122 -0.873603,-7.5892 1.586482,-2.419 0.04514,0.87276 -0.216101,2.86382 -1.586482,2.419 z m 47.444472,-2.27815 c 1.3395,-3.25652 -6.10786,-3.68333 0.15693,-3.45131 0.85381,0.65531 1.7017,3.48142 -0.15693,3.45131 z m -50.43383,-1.17524 c 1.538836,-2.02772 1.479296,0.58153 0,0 z m -22.659674,-7.80521 c 1.677417,-1.75161 -0.479457,1.4359 0,0 z m 0.96384,-0.64363 c 1.771341,-1.96919 1.177768,0.66064 0,0 z m 8.121082,-0.45161 c -0.252397,-1.59904 1.391282,0.63906 0,0 z m 4.380481,-0.26675 c -1.309844,-2.37033 7.079447,-0.64002 3.346506,-5.74572 -3.568858,-7.60095 -5.494081,11.21325 -5.666944,0.56727 5.307406,-11.68094 10.857079,7.59416 2.320438,5.17845 z m -10.914063,-0.3578 c 2.307039,-1.34005 -0.179165,1.01547 0,0 z m 6.246691,-0.57116 c -7.739386,1.59682 2.437221,-13.26266 -1.636993,-3.22531 -1.160694,3.97331 5.087522,-1.88901 3.230361,3.08012 -0.295122,0.0648 -1.280169,0.77071 -1.593368,0.14519 z m -4.973383,-0.13875 c 1.436885,-0.55067 -0.119413,0.6064 0,0 z m 97.416276,-0.6251 c 0.60553,-0.65115 2.10403,1.22484 0,0 z m -17.56187,-0.3944 c 1.09934,-2.07432 5.89097,-9.7319 -0.0335,-6.8281 3.60479,-5.83972 6.54443,4.82806 1.45526,5.50838 5.50051,-0.26647 1.53783,3.27766 -1.42176,1.31972 z m 8.16916,-0.0903 c -8.1941,-8.91503 10.42812,-11.42348 3.01515,-0.2815 -0.80345,0.74315 -2.08053,0.81774 -3.01515,0.2815 z m 2.94052,-1.81829 c 3.96255,-7.0276 -7.20728,-6.69919 -3.27426,0.14694 0.58661,1.18954 2.91725,1.26632 3.27426,-0.14694 z m 4.7324,1.25677 c 0.34832,-1.0032 0.59386,1.02459 0,0 z m -1.19063,-0.50977 c -4.82348,-2.23623 1.90174,0.30942 0,0 z m -55.27702,-4.14249 c 0.22499,-0.99725 0.21143,1.26961 0,0 z m 9.71908,0.23819 c 1.43688,-0.55069 -0.11942,0.60643 0,0 z m 1.85208,0 c 1.43688,-0.55069 -0.11943,0.60644 0,0 z m -5.17591,-10.31324 c 0.35737,-7.42546 -4.52084,-12.809 -0.24224,-19.61401 -0.0594,-4.21462 1.22816,-9.71578 2.04936,-2.5404 -0.77619,6.60154 5.12945,9.65296 0.30031,16.29814 -0.1281,1.79162 1.71453,7.30545 -2.10743,5.85627 z m 2.73088,-9.72775 c 5.20496,-6.55189 -10.18032,-5.05484 -3.32901,0.2285 1.07391,0.10339 2.32575,0.37364 3.32901,-0.2285 z m -3.35949,-0.89762 c -3.18249,-5.3232 5.59551,3.69499 1.73017,-2.97679 2.39748,-1.10722 2.4583,5.96679 -1.73017,2.97679 z m 0.63606,-0.87331 c -0.24299,-4.95777 4.05968,1.49604 0,0 z m 0.98474,-13.21254 c -1.02055,-2.13338 -0.49379,2.2884 0,0 z m 63.76458,23.72822 c 0.68775,-5.68961 0.93007,3.02716 0,0 z m 0.58075,-3.47198 c 0.36026,-1.21107 0.0696,1.68839 0,0 z M 60.181083,225.45856 c -8.010901,-0.25706 2.231283,-15.02128 -1.627179,-3.69041 -0.09907,3.6911 3.175143,-3.84186 3.368963,1.95631 l -0.375697,0.97264 z m 3.935109,-0.75106 c 2.595265,-0.37568 5.657294,-4.20762 -0.06974,-4.10703 -2.980122,-4.85003 6.478683,-5.24009 0.721933,-2.45658 4.534372,2.00661 5.304426,9.13759 -0.652189,6.56361 z m 90.052118,-3.71663 c -1.48282,-4.68887 -0.65228,-10.79863 0.38113,-2.58011 0.1176,0.68362 -0.31366,6.82412 -0.38113,2.58011 z m 3.25113,1.43669 c -0.3641,-0.62005 7.2229,-4.06269 0.68076,-4.05869 -5.81156,-3.30066 5.74204,-6.80889 -0.66512,-2.92501 4.76585,1.55258 5.96266,7.84758 -0.0156,6.9837 z m -106.392448,-1.332 c 1.419609,-0.23319 4.32064,0.14306 1.211183,0.0725 z m 112.312958,-2.90868 c 2.73635,-0.41765 2.17856,0.45903 0,0 z m -56.82626,-5.89134 c -0.95535,-7.11545 1.64244,5.24834 0,0 z m -15.875003,-4.19458 c 1.153361,-1.56784 1.668822,0.0529 0,0 z m 1.681993,-1.22938 c 1.874164,-1.56591 -0.747545,1.6102 0,0 z m 1.69313,-0.19844 c 1.83992,-2.19888 1.382229,-6.0677 1.08767,-1.40279 -1.841782,1.68188 3.232351,2.57509 -1.08767,1.40279 z m 3.687254,-0.41963 c -0.501464,-4.03651 3.238936,-4.47968 0.173597,-0.38919 1.655457,1.54174 4.696069,-3.47891 1.497382,1.45761 -0.740785,0.20616 -1.407295,-0.4534 -1.670979,-1.06842 z m 76.612676,-0.17568 c 0.30915,-1.68023 0.10014,2.15596 0,0 z m -49.06425,0.48072 c 1.43687,-0.55068 -0.1194,0.60641 0,0 z m -6.69539,-0.3454 c 0.48195,-0.61533 0.85406,1.18467 0,0 z m 2.18094,0.0863 c 1.27423,-0.65671 0.43762,0.54749 0,0 z m 1.35371,-0.0619 c 0.47602,-3.88712 1.88286,-1.46353 0,0 z m -2.03698,-0.73836 c 1.60766,-8.23357 0.89559,-1.46904 0,0 z m 52.87233,0.23805 c 1.25737,-1.05821 1.29299,0.95917 0,0 z m -54.50011,-1.42332 c -0.96436,-6.78753 1.29498,3.24753 0,0 z m -10.03733,-1.69774 c 0.22498,-0.99726 0.21143,1.26962 0,0 z m 63.21453,-0.50712 c 0.9578,-1.55857 0.95775,1.55858 0,0 z m -63.03698,-0.68265 c -1.78429,-1.84957 1.69249,0.63598 0,0 z m 62.96719,-1.10329 c -1.12039,-3.12123 1.7256,1.31039 0,0 z m -107.681776,0.27341 c 4.014911,-0.55265 4.179979,-4.98531 -0.420535,-4.61956 -1.717327,-4.61431 6.26321,-4.52405 0.787261,-1.74071 4.347361,1.64921 6.057777,8.35277 -0.366726,6.36027 z m 6.35,-0.20313 c -6.746548,-6.64057 8.458802,-12.29062 5.073745,-1.86293 -0.587073,2.13864 -3.239941,3.76051 -5.073745,1.86293 z m 2.519497,-0.33486 c 6.169547,-8.56573 -8.273691,-6.64281 -0.578222,0.21199 z m 37.101859,0.33073 c 0.59387,-1.02459 0.3483,1.00321 0,0 z m -1.37855,-1.64017 c -0.63266,-7.12764 1.04723,-2.75046 0,0 z m 36.94715,-0.0135 c -0.0693,-3.18272 -1.78607,-12.80015 0.5375,-4.55553 0.0729,1.52963 0.28686,3.16239 -0.5375,4.55553 z m 0.28244,-6.92969 c -0.48632,-1.00358 -0.78822,0.58696 0,0 z m 3.63478,6.82247 c -7.80537,-7.69357 7.86953,-12.52945 3.70639,-1.38919 -0.61292,1.39847 -2.34119,1.85889 -3.70639,1.38919 z m 2.01258,-0.70566 c 6.01578,-3.58707 -5.59522,-11.39577 -2.87004,-2.51826 0.0285,1.39028 1.25916,3.33053 2.87004,2.51826 z m -44.01194,-0.70847 c 0.62372,-1.89148 0.62372,1.89148 0,0 z m -2.11667,-1.80295 c 2.62268,-3.10259 2.54107,-0.65388 0,0 z m 4.23333,-1.23976 c 0.79229,-1.46847 1.29366,1.85062 0,0 z M 60.624054,193.634 c -0.908908,-1.49155 2.436572,1.91881 0,0 z m 47.609426,-0.12388 c 0.83519,-1.15271 0.40714,1.09263 0,0 z m -50.595839,-1.29257 c -3.15657,-2.7746 4.323264,2.10731 0,0 z m 35.646879,0.13434 c 1.954092,-5.33738 3.05639,2.32468 0,0 z m 4.090162,0.0823 c 2.4137,-1.33209 2.944198,-0.63963 0,0 z m 10.652578,-0.32258 c 0.71875,-1.61252 0.83563,1.25932 0,0 z m 12.13003,-0.16194 c -1.0672,-1.44011 3.08829,1.32709 0,0 z m 1.70628,-1.25142 c -2.51995,-2.63946 -1.23702,-4.62688 -0.88359,-1.42546 -0.33996,-0.57251 2.55733,1.60795 0.88359,1.42546 z m 34.1272,-0.37461 c 4.06926,-3.43352 -0.5832,1.49509 0,0 z m -56.885416,0.0115 c -4.43105,-0.35982 0.683253,-1.31331 0,0 z m 6.716196,-0.646 c -0.55683,-2.971 0.89863,1.19258 0,0 z m 1.06955,0.0117 c -1.37349,-2.45266 4.1181,1.67899 0,0 z m 3.08306,-0.0492 c 0.22497,-0.99726 0.21144,1.26957 0,0 z m -16.68964,-0.69988 c 0.889322,-2.15404 3.42734,0.31581 0,0 z m 3.797435,-0.0273 c 1.529866,-2.65659 2.645318,0.21044 0,0 z m 11.123175,-0.8306 c 0.27817,-1.7908 0.53711,1.41568 0,0 z m -18.227902,-0.40453 c 0.945478,-1.11103 0.402853,0.98774 0,0 z m 33.617662,-0.12388 c 2.25564,-1.74243 -0.85678,1.51077 0,0 z m -18.92398,-2.76914 c 2.45728,-1.5464 -0.75363,-7.36206 2.4254,-1.81038 0.34982,1.3739 -1.01837,3.3328 -2.4254,1.81038 z m 4.14748,0.16474 c 4.11591,-0.43924 -1.59777,-8.44622 2.50782,-2.15906 10e-4,1.04821 -1.21163,3.33013 -2.50782,2.15906 z m -0.94001,-0.7113 c 0.22936,-1.20422 0.22938,1.20419 0,0 z m -28.708061,-0.74844 c 2.686555,-0.4234 5.55432,-4.62444 -0.05966,-4.43006 -2.808897,-4.78549 6.224757,-4.52592 0.380433,-2.23666 3.759683,1.62043 6.520026,8.31704 -0.320773,6.66672 z m 6.441284,0.21927 c -2.618556,-1.98176 6.71888,-1.38104 1.680744,-4.92955 -7.200554,2.50552 2.344006,-8.33324 -1.164689,-2.69229 0.31579,2.59954 7.294096,7.67878 -0.516055,7.62184 z m 22.398647,-0.84834 c -0.34879,-2.21199 1.08497,2.14626 0,0 z m 21.79639,-0.59528 c -1.70677,-1.55963 5.51295,-1.1854 3.91159,-2.92063 0.24519,1.79033 -2.14865,4.27884 -3.91159,2.92063 z m -21.92826,-3.0543 c 0.22938,-1.20422 0.22938,1.20422 0,0 z m 24.64114,-1.05833 c -4.64765,1.59072 -4.84162,-5.88456 -0.4386,-4.61521 -5.97252,3.04387 1.93498,2.10047 0.82936,5.05018 z m -0.0767,-1.05833 c -0.34829,-1.00323 -0.59388,1.02459 0,0 z m -30.7804,-2.12115 c -5.128318,-3.84286 3.54943,-10.42331 2.49849,-7.35529 -6.853266,2.15604 7.8378,4.34172 -0.3207,8.42115 l -1.06607,-0.16019 z m 3.18918,-0.76566 c 1.15106,-8.07555 -6.568806,2.10119 0,0 z m 4.31462,0.73696 c -6.43856,-6.46319 7.43283,-12.20529 5.09277,-2.21188 -0.23471,2.5026 -3.07451,3.78098 -5.09277,2.21188 z m 3.41214,-0.79929 c 4.56432,-5.95624 -6.20379,-9.11845 -3.29311,-1.20843 0.3226,1.37784 2.21291,2.49058 3.29311,1.20843 z m -32.193178,-0.48425 c -1.503223,-2.05936 1.5519,0.93166 0,0 z m -1.388192,-2.19105 c -2.709572,-4.8479 3.10539,3.76554 0,0 z m 56.77496,-2.04848 c 1.10135,-2.74061 -0.43024,1.95102 0,0 z m -58.059978,0.0246 0.08015,-0.441 z m 29.127808,-22.84489 c -1.6989,-5.38042 3.73617,0.37771 0,0 z m -4.60907,-2.49585 c 1.43687,-0.55068 -0.1194,0.60641 0,0 z m -3.968746,-2.64583 c 1.436892,-0.55068 -0.119444,0.60643 0,0 z m -0.887478,-4.93847 c -4.058928,-1.35255 -5.646483,-4.09459 -0.412288,-0.788 0.368995,-0.0996 4.156032,1.75034 0.412288,0.788 z m 17.076674,-0.70163 c 0.59389,-1.02459 0.34828,1.00323 0,0 z m 2.11666,-0.18157 c 3.29394,-4.12215 4.50659,-1.53966 0,0 z m -10.58333,-10.12887 c 1.02906,-0.59807 0.88853,0.97953 0,0 z m 0,-1.20189 c 1.43732,-2.57208 1.39536,2.5207 0,0 z m 8.15247,-28.885073 c 1.43687,-0.550707 -0.11938,0.606406 0,0 z m -1.32291,-0.264584 c 1.43689,-0.550694 -0.11941,0.6064 0,0 z m -9.01237,-1.064318 c 2.49978,-0.648664 0.64956,0.501921 0,0 z m 4.50265,-0.005 c 3.2799,-0.606322 1.05056,0.464521 0,0 z"
         id="path918"
         inkscape:connector-curvature="0" />
    </g>
    <path
       style="fill:#f9af08;fill-opacity:0.76388891;stroke:#054209;stroke-width:2.76930737;stroke-linecap:butt;stroke-linejoin:round;stroke-miterlimit:4;stroke-dasharray:none;stroke-opacity:1"
       d="m 26.579812,260.92153 c 10.833811,-10.07164 23.140379,-18.70214 40.33243,-22.5521 L 29.032432,97.293257 C 80.040639,110.59884 94.031,165.89828 125.01016,201.25251 l -49.935402,25.8409 2.400741,9.3967 32.650071,-3.75867 c 10.34838,-17.54047 34.15575,-20.98593 36.01109,-34.76776 l 12.96398,-1.87932 c -2.09809,-4.00207 -2.67581,-8.54582 -0.9603,-15.03471 6.77375,-1.16534 9.4123,-0.98188 12.48387,-0.93967 4.31349,3.02051 5.60568,8.25835 4.80146,15.0347 l -5.76177,4.69834 -2.88089,10.33634 c -3.69201,10.37082 -11.86238,9.20953 -19.20593,17.85374 l 13.44417,-0.46985 c 1.03374,5.16819 2.83188,10.33638 -4.80149,15.50455 l 49.19216,1.42963 c -30.18237,1.70674 -55.33284,-3.59171 -55.91422,7.0274 -7.79872,1.86032 -24.6752,7.25093 -33.32443,9.48115 -4.32461,1.11512 39.09308,2.40088 67.45336,7.20732 5.39406,0.91417 -87.47938,-7.21596 -92.209547,1.48847 -16.645131,2.19256 -30.906813,1.24288 -47.551944,3.43543 -5.761776,-2.59617 -11.523552,-3.68636 -17.285327,-12.21567 z"
       id="path815"
       inkscape:connector-curvature="0"
       sodipodi:nodetypes="cccccccccccccccccccssccc" />
  </g>
</svg>
